<svg width="200" height="200" viewBox="0 0 200 200" fill="currentColor" xmlns="http://www.w3.org/2000/svg">
<path id="Vector" d="M99.9997 51.5418C73.3477 51.5418 51.5415 73.348 51.5415 100C51.5415 126.652 73.3477 148.458 99.9997 148.458C126.652 148.458 148.458 126.652 148.458 100C148.458 73.348 126.652 51.5418 99.9997 51.5418ZM99.9997 130.837C83.0393 130.837 69.1626 116.96 69.1626 100C69.1626 83.0396 83.0393 69.163 99.9997 69.163C116.96 69.163 130.837 83.0396 130.837 100C130.837 116.96 116.96 130.837 99.9997 130.837Z" fill="white" style="fill:white;fill-opacity:1;"/>
<path id="Vector_2" d="M99.9995 35.4626C104.845 35.4626 108.81 31.4978 108.81 26.652V8.81057C108.81 3.96476 104.845 0 99.9995 0C95.1537 0 91.189 3.96476 91.189 8.81057V26.652C91.189 31.7181 95.1537 35.4626 99.9995 35.4626Z" fill="white" style="fill:white;fill-opacity:1;"/>
<path id="Vector_3" d="M191.19 91.1894H173.349C168.503 91.1894 164.538 95.1542 164.538 100C164.538 104.846 168.503 108.811 173.349 108.811H191.19C196.036 108.811 200.001 104.846 200.001 100C200.001 95.1542 196.036 91.1894 191.19 91.1894Z" fill="white" style="fill:white;fill-opacity:1;"/>
<path id="Vector_4" d="M99.9995 164.537C95.1537 164.537 91.189 168.502 91.189 173.348V191.189C91.189 196.035 95.1537 200 99.9995 200C104.845 200 108.81 196.035 108.81 191.189V173.348C108.81 168.282 104.845 164.537 99.9995 164.537Z" fill="white" style="fill:white;fill-opacity:1;"/>
<path id="Vector_5" d="M35.4626 100C35.4626 95.1542 31.4978 91.1894 26.652 91.1894H8.81057C3.96476 91.1894 0 95.1542 0 100C0 104.846 3.96476 108.811 8.81057 108.811H26.652C31.7181 108.811 35.4626 104.846 35.4626 100Z" fill="white" style="fill:white;fill-opacity:1;"/>
<path id="Vector_6" d="M151.762 57.0485C153.964 57.0485 156.167 56.1674 157.929 54.4053L170.705 41.63C174.229 38.1057 174.229 32.5991 170.705 29.0749C167.18 25.5507 161.674 25.5507 158.149 29.0749L145.374 41.8502C141.85 45.3744 141.85 50.881 145.374 54.4053C147.357 56.1674 149.559 57.0485 151.762 57.0485Z" fill="white" style="fill:white;fill-opacity:1;"/>
<path id="Vector_7" d="M157.929 145.595C154.405 142.07 148.898 142.07 145.374 145.595C141.85 149.119 141.85 154.626 145.374 158.15L158.149 170.925C159.912 172.687 162.114 173.568 164.317 173.568C166.519 173.568 168.722 172.687 170.484 170.925C174.008 167.401 174.008 161.894 170.484 158.37L157.929 145.595Z" fill="white" style="fill:white;fill-opacity:1;"/>
<path id="Vector_8" d="M42.0708 145.595L29.2955 158.37C25.7713 161.894 25.7713 167.401 29.2955 170.925C31.0576 172.687 33.2603 173.568 35.4629 173.568C37.6656 173.568 39.8682 172.687 41.6303 170.925L54.4056 158.15C57.9299 154.626 57.9299 149.119 54.4056 145.595C51.1017 142.07 45.3748 142.07 42.0708 145.595Z" fill="white" style="fill:white;fill-opacity:1;"/>
<path id="Vector_9" d="M42.0704 54.4053C43.6123 56.1674 46.0352 57.0485 48.2378 57.0485C50.4405 57.0485 52.6431 56.1674 54.4052 54.4053C57.9294 50.881 57.9294 45.3744 54.4052 41.8502L41.6299 29.0749C38.1056 25.5507 32.599 25.5507 29.0748 29.0749C25.5506 32.5991 25.5506 38.1057 29.0748 41.63L42.0704 54.4053Z" fill="white" style="fill:white;fill-opacity:1;"/>
</svg>
