<svg width="200" height="200" viewBox="0 0 200 150" fill="currentColor" xmlns="http://www.w3.org/2000/svg">
<path id="Vector" d="M155.313 37.5C145.313 14.625 125 0 103.125 0C76.25 0 52.5 22.125 45.9375 52.875C44.0625 52.5 42.5 52.5 40.625 52.5C18.125 52.5 0 74.25 0 101.25C0 128.25 18.125 150 40.625 150H153.125C179.063 150 200 124.875 200 93.75C200 63.75 180.313 39 155.313 37.5ZM153.437 135H40.625C25 135 12.5 120 12.5 101.25C12.5 82.5 25 67.5 40.625 67.5C43.4375 67.5 46.25 67.875 48.75 69L55.625 71.625L56.5625 63C60.3125 35.625 80 15 103.125 15C121.563 15 138.438 28.125 145.938 48.375L147.812 52.875L152.813 52.5C153.125 52.5 153.125 52.5 153.437 52.5C172.5 52.5 187.812 70.875 187.812 93.75C187.5 116.625 172.187 135 153.437 135Z" fill="white" style="fill:white;fill-opacity:1;"/>
</svg>
