<svg width="200" height="200" viewBox="0 0 200 200" fill="currentColor" xmlns="http://www.w3.org/2000/svg">
<g id="cloudy-with-sunny-intervals">
<path id="Vector" d="M68.75 7.69231V30.7692C68.75 35 71.5625 38.4615 75 38.4615C78.4375 38.4615 81.25 35 81.25 30.7692V7.69231C81.25 3.46154 78.4375 0 75 0C71.5625 0 68.75 3.46154 68.75 7.69231Z" fill="white" style="fill:white;fill-opacity:1;"/>
<path id="Vector_2" d="M6.25 100H25C28.4375 100 31.25 96.5384 31.25 92.3077C31.25 88.0769 28.4375 84.6154 25 84.6154H6.25C2.8125 84.6154 0 88.0769 0 92.3077C0 96.5384 2.8125 100 6.25 100Z" fill="white" style="fill:white;fill-opacity:1;"/>
<path id="Vector_3" d="M44.0625 54.2307C46.5625 51.1538 46.5625 46.5384 44.0625 43.4615L30.9375 26.923C28.4375 23.8461 24.6875 23.8461 22.1875 26.923C19.6875 30 19.6875 34.6154 22.1875 37.6923L35.625 54.2307C36.875 55.7692 38.4375 56.5384 40 56.5384C41.25 56.5384 42.8125 55.7692 44.0625 54.2307Z" fill="white" style="fill:white;fill-opacity:1;"/>
<path id="Vector_4" d="M119.375 26.9231L105.937 43.4616C103.437 46.5385 103.437 51.1539 105.937 54.2308C107.187 55.7693 108.75 56.5385 110.312 56.5385C111.875 56.5385 113.437 55.7693 114.687 54.2308L128.125 37.6923C130.625 34.6154 130.625 30 128.125 26.9231C125.625 24.2308 121.562 24.2308 119.375 26.9231Z" fill="white" style="fill:white;fill-opacity:1;"/>
<path id="Vector_5" d="M21.8745 157.692C23.1245 159.231 24.687 160 26.2495 160C27.812 160 29.3745 159.231 30.6245 157.692L44.062 141.154C46.562 138.077 46.562 133.462 44.062 130.385C41.562 127.308 37.812 127.308 35.312 130.385L21.8745 146.923C19.3745 149.615 19.3745 154.615 21.8745 157.692Z" fill="white" style="fill:white;fill-opacity:1;"/>
<path id="Vector_6" d="M166.562 108.077C158.75 88.8462 142.812 76.9231 125 76.9231C120 76.9231 115.312 78.077 110.938 79.6154C106.563 60.3846 91.875 46.1539 75 46.1539C54.375 46.1539 37.5 66.9231 37.5 92.3077C37.5 110.769 46.5625 126.923 59.375 134.231C53.75 141.154 50 150.769 50 161.538C50 182.692 64.0625 200 81.25 200H162.5C183.125 200 200 179.231 200 153.846C200 130 185.312 110.385 166.562 108.077ZM50 92.3077C50 75.3846 61.25 61.5385 75 61.5385C87.1875 61.5385 97.1875 72.3077 99.375 86.1539C89.0625 94.2308 81.875 107.308 79.0625 122.308C77.8125 123.077 76.5625 123.077 75 123.077C61.25 123.077 50 109.231 50 92.3077ZM162.5 184.615H81.25C70.9375 184.615 62.5 174.231 62.5 161.538C62.5 148.846 70.9375 138.462 81.25 138.462C81.875 138.462 82.5 138.462 83.125 138.846L90.3125 140L90.625 131.923C92.1875 109.615 107.188 92.3077 125 92.3077C139.062 92.3077 151.25 102.692 156.875 118.462L158.438 123.077H162.5C176.25 123.077 187.5 136.923 187.5 153.846C187.5 170.769 176.25 184.615 162.5 184.615Z" fill="white" style="fill:white;fill-opacity:1;"/>
</g>
</svg>
