<svg width="200" height="200" viewBox="0 0 200 200" fill="currentColor" xmlns="http://www.w3.org/2000/svg">
<g id="fog">
<path id="Vector" d="M127.812 152.359C127.812 147.413 124.134 143.248 119.766 143.248H8.27567C3.90801 143.248 0.22998 147.413 0.22998 152.359C0.22998 157.306 3.90801 161.471 8.27567 161.471H119.766C124.134 161.471 127.812 157.306 127.812 152.359Z" fill="white" style="fill:white;fill-opacity:1;"/>
<path id="Vector_2" d="M168.73 181.777H41.8382C37.4705 181.777 33.7925 185.942 33.7925 190.888C33.7925 195.835 37.4705 200 41.8382 200H168.73C173.098 200 176.776 195.835 176.776 190.888C176.776 185.942 173.098 181.777 168.73 181.777Z" fill="white" style="fill:white;fill-opacity:1;"/>
<path id="Vector_3" d="M147.581 141.946C142.524 141.946 138.386 146.632 138.386 152.359C138.386 158.087 142.524 162.773 147.581 162.773H148.041C153.098 162.773 157.236 158.087 157.236 152.359C157.236 146.632 153.098 141.946 148.041 141.946H147.581Z" fill="white" style="fill:white;fill-opacity:1;"/>
<path id="Vector_4" d="M198.844 66.9708C197.465 64.6278 194.936 63.3262 192.637 63.5865C181.603 64.6278 170.799 58.1195 165.282 47.1856C159.765 36.2517 160.224 22.4542 166.431 12.3013C167.81 9.95828 168.04 6.83431 166.891 4.49133C165.742 2.14835 163.443 0.326029 160.914 0.0656983C152.409 -0.454964 143.903 2.14835 136.547 6.83431C124.364 14.9046 116.088 28.7021 114.249 44.5823C113.789 48.7476 116.318 52.6526 120.226 53.4336C123.904 53.9542 127.352 51.0906 128.042 46.665C129.421 35.4707 134.938 26.0988 143.443 20.3715C145.282 19.0699 147.122 18.2889 149.19 17.5079C145.972 30.0038 147.351 43.541 153.328 54.9956C159.305 66.4501 168.96 74.5204 179.994 77.6444C178.385 79.2064 176.776 80.508 174.937 81.8097C173.098 83.1113 171.029 83.8923 169.19 84.6733C165.512 85.975 163.673 90.4006 164.822 94.5659C165.742 97.9502 168.5 100.033 171.259 100.033C171.948 100.033 172.638 100.033 173.327 99.5122C176.316 98.4709 179.074 96.9089 181.603 95.3469C188.959 90.4006 194.936 83.3716 199.074 74.7807C200.453 72.4377 200.223 69.3138 198.844 66.9708Z" fill="white" style="fill:white;fill-opacity:1;"/>
<path id="Vector_5" d="M9.19507 127.368C14.2524 127.368 18.3901 122.682 18.3901 116.954C18.3901 104.458 26.4358 96.1279 38.3894 96.1279C43.4467 96.1279 47.3546 91.7022 47.5845 85.9749C47.5845 83.1113 48.9638 57.0782 72.6411 57.0782C82.7557 57.0782 89.8818 61.5038 94.2495 70.3551C97.9275 77.9047 98.3873 85.9749 98.3873 85.9749C98.6172 91.4419 102.755 95.8675 107.582 95.8675H117.927C129.88 95.8675 137.926 104.198 137.926 116.694C137.926 122.421 142.064 127.107 147.121 127.107C152.178 127.107 156.316 122.421 156.316 116.694C156.316 92.4832 140.225 75.041 117.927 75.041H115.398C114.479 70.8758 113.099 66.1898 110.801 61.2435C103.215 45.103 89.652 36.2517 72.6411 36.2517C55.6302 36.2517 42.0675 45.103 34.7114 61.2435C32.4126 66.4501 31.0334 71.6567 30.1139 75.822C12.1835 79.727 0 95.6072 0 116.954C0 122.682 4.13778 127.368 9.19507 127.368Z" fill="white" style="fill:white;fill-opacity:1;"/>
</g>
</svg>
