<svg width="200" height="200" viewBox="0 0 200 200" fill="currentColor" xmlns="http://www.w3.org/2000/svg">
<g id="freezing-rain">
<path id="Vector" d="M50.9375 138.967C48.125 136.776 44.375 137.402 42.1875 139.906L22.1875 164.945C20 167.762 20.3125 171.518 23.125 173.709C24.0625 174.961 25.625 175.274 26.875 175.274C28.75 175.274 30.625 174.335 31.875 172.77L51.875 147.731C54.0625 145.227 53.4375 141.158 50.9375 138.967Z" fill="white" style="fill:white;fill-opacity:1;"/>
<path id="Vector_2" d="M88.438 138.967C85.6255 136.776 81.8755 137.089 79.688 139.906L39.688 189.984C37.5005 192.801 37.813 196.557 40.6255 198.748C41.8755 199.687 43.1255 200 44.3755 200C46.2505 200 48.1255 199.061 49.3755 197.496L89.3755 147.418C91.563 145.227 90.938 141.158 88.438 138.967Z" fill="white" style="fill:white;fill-opacity:1;"/>
<path id="Vector_3" d="M115.625 138.028C112.187 138.028 109.375 140.845 109.375 144.288C105.937 144.288 103.125 147.105 103.125 150.548C103.125 153.991 105.937 156.808 109.375 156.808C109.375 160.25 112.187 163.067 115.625 163.067C119.063 163.067 121.875 160.25 121.875 156.808C125.313 156.808 128.125 153.991 128.125 150.548C128.125 147.105 125.313 144.288 121.875 144.288C121.875 140.845 119.063 138.028 115.625 138.028Z" fill="white" style="fill:white;fill-opacity:1;"/>
<path id="Vector_4" d="M94.9995 169.327C91.562 169.327 88.7495 172.144 88.7495 175.587C85.312 175.587 82.4995 178.404 82.4995 181.847C82.4995 185.29 85.312 188.106 88.7495 188.106C88.7495 191.549 91.562 194.366 94.9995 194.366C98.437 194.366 101.25 191.549 101.25 188.106C104.687 188.106 107.5 185.29 107.5 181.847C107.5 178.404 104.687 175.587 101.25 175.587C101.25 172.144 98.437 169.327 94.9995 169.327Z" fill="white" style="fill:white;fill-opacity:1;"/>
<path id="Vector_5" d="M142.5 175.587C142.5 172.144 139.688 169.327 136.25 169.327C132.813 169.327 130 172.144 130 175.587C126.563 175.587 123.75 178.404 123.75 181.847C123.75 185.29 126.563 188.106 130 188.106C130 191.549 132.813 194.366 136.25 194.366C139.688 194.366 142.5 191.549 142.5 188.106C145.938 188.106 148.75 185.29 148.75 181.847C148.75 178.404 145.938 175.587 142.5 175.587Z" fill="white" style="fill:white;fill-opacity:1;"/>
<path id="Vector_6" d="M153.125 156.808C153.125 160.25 155.937 163.067 159.375 163.067C162.813 163.067 165.625 160.25 165.625 156.808C169.063 156.808 171.875 153.991 171.875 150.548C171.875 147.105 169.063 144.288 165.625 144.288C165.625 140.845 162.813 138.028 159.375 138.028C155.937 138.028 153.125 140.845 153.125 144.288C149.687 144.288 146.875 147.105 146.875 150.548C146.875 153.991 149.687 156.808 153.125 156.808Z" fill="white" style="fill:white;fill-opacity:1;"/>
<path id="Vector_7" d="M155.313 31.2989C145.313 12.2066 125 0 103.125 0C76.25 0 52.5 18.4664 45.9375 44.1315C44.0625 43.8185 42.5 43.8185 40.625 43.8185C18.125 43.8185 0 61.9718 0 84.5071C0 107.042 18.125 125.196 40.625 125.196H153.125C179.063 125.196 200 104.225 200 78.2473C200 53.2081 180.313 32.5509 155.313 31.2989ZM153.125 112.676H40.625C25 112.676 12.5 100.157 12.5 84.5071C12.5 68.8576 25 56.338 40.625 56.338C43.4375 56.338 46.25 56.651 48.75 57.59L55.625 59.7809L56.5625 52.5822C60.3125 29.734 80 12.5196 103.125 12.5196C121.563 12.5196 138.438 23.4742 145.938 40.3756L147.812 44.1315L152.813 43.8185C153.125 43.8185 153.125 43.8185 153.437 43.8185C172.5 43.8185 187.812 59.1549 187.812 78.2473C187.5 97.3396 172.187 112.676 153.125 112.676Z" fill="white" style="fill:white;fill-opacity:1;"/>
</g>
</svg>
