<svg width="200" height="200" viewBox="0 0 200 200" fill="currentColor" xmlns="http://www.w3.org/2000/svg">
<g id="hail">
<path id="Vector" d="M53.2835 0.476141C46.1107 -1.47043 38.5962 2.74714 36.5468 9.56015L13.6619 90.9918C11.6125 97.8049 16.0529 104.942 23.2258 106.889C24.2505 107.213 25.6167 107.213 26.6414 107.213C32.7896 107.213 38.2546 103.32 39.9625 97.4804L62.8474 16.0487C64.8968 9.56016 60.798 2.42272 53.2835 0.476141Z" fill="white" style="fill:white;fill-opacity:1;"/>
<path id="Vector_2" d="M15.3704 122.137C11.2717 122.137 7.51444 123.759 4.44035 126.355C1.70782 128.95 0 132.843 0 136.736C0 140.629 1.70782 144.198 4.44035 147.118C7.17287 149.713 11.2717 151.336 15.3704 151.336C19.4692 151.336 23.568 149.713 26.3005 147.118C29.0331 144.523 30.7409 140.629 30.7409 136.736C30.7409 132.843 29.0331 129.274 26.3005 126.355C23.2264 123.759 19.4692 122.137 15.3704 122.137Z" fill="white" style="fill:white;fill-opacity:1;"/>
<path id="Vector_3" d="M70.0208 170.801C65.9221 170.801 61.8233 172.424 59.0907 175.019C56.3582 177.614 54.6504 181.508 54.6504 185.401C54.6504 189.294 56.3582 192.863 59.0907 195.782C61.8233 198.378 65.9221 200 70.0208 200C74.1196 200 77.8768 198.378 80.9509 195.782C83.6835 193.187 85.3913 189.294 85.3913 185.401C85.3913 181.508 83.6835 177.614 80.9509 175.019C78.2184 172.424 74.1196 170.801 70.0208 170.801Z" fill="white" style="fill:white;fill-opacity:1;"/>
<path id="Vector_4" d="M151.996 122.137C147.898 122.137 144.14 123.759 141.066 126.355C138.334 128.95 136.626 132.843 136.626 136.736C136.626 140.629 138.334 144.198 141.066 147.118C143.799 149.713 147.898 151.336 151.996 151.336C156.095 151.336 160.194 149.713 162.927 147.118C165.659 144.523 167.367 140.629 167.367 136.736C167.367 132.843 165.659 128.95 162.927 126.355C159.852 123.759 156.095 122.137 151.996 122.137Z" fill="white" style="fill:white;fill-opacity:1;"/>
<path id="Vector_5" d="M108.276 49.1405C101.103 47.1939 93.5884 51.4115 91.539 58.2245L68.6541 139.656C66.6047 146.469 71.0451 153.607 78.218 155.553C79.2427 155.878 80.6089 155.878 81.6336 155.878C87.7818 155.878 93.2468 151.985 94.9547 146.145L117.84 64.7131C119.889 58.2245 115.449 51.0871 108.276 49.1405Z" fill="white" style="fill:white;fill-opacity:1;"/>
<path id="Vector_6" d="M189.91 0.476141C182.737 -1.47043 175.222 2.74714 173.173 9.56015L150.288 90.9918C148.239 97.8049 152.679 104.942 159.852 106.889C160.876 107.213 162.243 107.213 163.267 107.213C169.416 107.213 174.881 103.32 176.588 97.4804L199.473 16.0487C201.523 9.56016 197.424 2.42272 189.91 0.476141Z" fill="white" style="fill:white;fill-opacity:1;"/>
</g>
</svg>
