<svg width="200" height="200" viewBox="0 0 200 200" fill="currentColor" xmlns="http://www.w3.org/2000/svg">
<g id="heavy-rain-with-thunderstorms">
<path id="Vector" d="M34.8393 189.984C32.5812 192.801 32.9038 196.557 35.807 198.748C37.0973 199.687 38.3877 200 40.0006 200C41.936 200 43.8715 199.061 45.1619 197.809L49.0328 193.114C51.2909 190.297 50.9683 186.541 48.0651 184.351C45.1619 182.16 41.2909 182.473 39.0328 185.289L34.8393 189.984Z" fill="white" style="fill:white;fill-opacity:1;"/>
<path id="Vector_2" d="M61.9355 177.152L76.129 160.563C78.3871 157.746 78.0645 153.991 75.1613 151.8C72.258 149.609 68.3871 149.922 66.129 152.739L51.9355 169.327C49.6774 172.144 50 175.9 52.9032 178.091C54.1935 179.03 55.4839 179.656 57.0968 179.656C58.7097 179.343 60.6451 178.717 61.9355 177.152Z" fill="white" style="fill:white;fill-opacity:1;"/>
<path id="Vector_3" d="M132.903 198.748C134.193 199.687 135.483 200 136.774 200C138.709 200 140.645 199.061 141.935 197.809L153.225 184.038C155.483 181.221 155.161 177.465 152.258 175.274C149.354 173.083 145.483 173.396 143.225 176.213L131.935 189.984C129.677 192.801 129.999 196.557 132.903 198.748Z" fill="white" style="fill:white;fill-opacity:1;"/>
<path id="Vector_4" d="M162.58 169.014C164.515 169.014 166.451 168.075 167.741 166.51L172.902 160.25C175.16 157.433 174.838 153.678 171.935 151.487C169.031 149.296 165.16 149.609 162.902 152.426L157.741 158.685C155.483 161.502 155.806 165.258 158.709 167.449C159.677 168.701 161.29 169.014 162.58 169.014Z" fill="white" style="fill:white;fill-opacity:1;"/>
<path id="Vector_5" d="M138.064 112.676C135.161 110.485 131.29 110.798 129.032 113.615L88.3867 162.754H114.193L91.6125 189.984C89.3545 192.801 89.677 196.557 92.5803 198.748C93.8706 199.687 95.1609 200 96.4512 200C98.3867 200 100.322 199.061 101.613 197.496L140.967 150.235H115.161L139.032 121.44C141.29 118.623 140.967 114.867 138.064 112.676Z" fill="white" style="fill:white;fill-opacity:1;"/>
<path id="Vector_6" d="M70.9677 0C67.4193 0 64.5161 2.8169 64.5161 6.25978V18.7793C64.5161 22.2222 67.4193 25.0391 70.9677 25.0391C74.5161 25.0391 77.4193 22.2222 77.4193 18.7793V6.25978C77.4193 2.8169 74.5161 0 70.9677 0Z" fill="white" style="fill:white;fill-opacity:1;"/>
<path id="Vector_7" d="M0 68.8576C0 72.3005 2.90323 75.1174 6.45161 75.1174H19.3548C22.9032 75.1174 25.8065 72.3005 25.8065 68.8576C25.8065 65.4147 22.9032 62.5978 19.3548 62.5978H6.45161C2.90323 62.5978 0 65.4147 0 68.8576Z" fill="white" style="fill:white;fill-opacity:1;"/>
<path id="Vector_8" d="M39.0321 37.8717C41.6128 35.3677 41.6128 31.6119 39.0321 29.108L31.6128 21.9092C29.0321 19.4053 25.1611 19.4053 22.5805 21.9092C19.9999 24.4131 19.9999 28.169 22.5805 30.6729L29.9999 37.8717C31.2902 39.1236 32.9031 39.7496 34.516 39.7496C36.1289 39.7496 37.7418 39.1236 39.0321 37.8717Z" fill="white" style="fill:white;fill-opacity:1;"/>
<path id="Vector_9" d="M107.419 39.7496C109.032 39.7496 110.645 39.1236 111.935 37.8717L119.354 30.9859C121.935 28.482 121.935 24.7261 119.354 22.2222C116.774 19.7183 112.903 19.7183 110.322 22.2222L102.903 29.421C100.322 31.9249 100.322 35.6808 102.903 38.1847C104.193 39.1236 105.806 39.7496 107.419 39.7496Z" fill="white" style="fill:white;fill-opacity:1;"/>
<path id="Vector_10" d="M29.9999 99.8435L22.5805 107.042C19.9999 109.546 19.9999 113.302 22.5805 115.806C23.8708 117.058 25.4837 117.684 27.0966 117.684C28.7095 117.684 30.3224 117.058 31.6128 115.806L39.0321 108.607C41.6128 106.103 41.6128 102.347 39.0321 99.8435C36.4515 97.6526 32.5805 97.6526 29.9999 99.8435Z" fill="white" style="fill:white;fill-opacity:1;"/>
<path id="Vector_11" d="M165.484 69.1706C157.42 53.5211 140.968 43.8185 122.581 43.8185C115.484 43.8185 109.032 45.3834 102.903 47.8873C95.8067 37.8717 83.8712 31.2989 70.968 31.2989C49.6777 31.2989 32.2583 48.2003 32.2583 68.8576C32.2583 81.0642 38.3873 92.3318 48.3873 99.2175C46.4518 103.286 45.1615 107.668 45.1615 112.676C45.1615 129.89 59.6777 143.975 77.4196 143.975H90.3228C93.8712 143.975 96.7744 141.158 96.7744 137.715C96.7744 134.272 93.8712 131.455 90.3228 131.455H77.4196C66.7744 131.455 58.0648 123.005 58.0648 112.676C58.0648 102.347 66.7744 93.8967 77.4196 93.8967C78.0647 93.8967 78.7099 93.8967 79.3551 94.2097L86.7744 95.1487L87.097 88.5759C88.7099 70.4226 104.194 56.338 122.581 56.338C137.097 56.338 149.678 64.7887 155.484 77.6213L157.097 81.3772H161.291C175.484 81.3772 187.097 92.6448 187.097 106.416C187.097 120.188 175.484 131.455 161.291 131.455H148.387C144.839 131.455 141.936 134.272 141.936 137.715C141.936 141.158 144.839 143.975 148.387 143.975H161.291C182.581 143.975 200 127.074 200 106.416C200 87.011 184.839 71.0485 165.484 69.1706ZM75.1615 81.3772C67.7422 82.0031 61.2906 84.8201 55.8067 89.2019C49.3551 84.8201 45.1615 76.9953 45.1615 68.8576C45.1615 55.0861 56.7744 43.8185 70.968 43.8185C79.3551 43.8185 87.097 47.8873 91.9357 54.4601C83.5486 61.3459 77.4196 70.7355 75.1615 81.3772Z" fill="white" style="fill:white;fill-opacity:1;"/>
</g>
</svg>
