<svg width="200" height="200" viewBox="0 0 200 200" fill="currentColor" xmlns="http://www.w3.org/2000/svg">
<g id="heavy-rain">
<path id="Vector" d="M150.661 44.2137H147.43C146.256 39.4659 144.493 34.1246 141.557 28.4866C131.865 10.089 114.537 0 93.0984 0C71.3656 0 54.0382 10.089 44.6402 28.4866C41.7034 34.4214 39.9413 40.3561 38.7665 45.1039C15.859 49.2582 0 67.6558 0 91.6914C0 107.122 7.34215 121.365 19.3833 129.97C24.6696 133.828 32.0118 132.641 35.8297 127.3C39.6476 121.958 38.4728 114.54 33.1865 110.682C27.3128 106.528 23.7885 99.4065 23.7885 91.6914C23.7885 77.4481 34.0675 67.9525 49.3392 67.9525C55.8003 67.9525 60.793 62.908 61.0866 56.3798C61.0866 53.1157 62.8488 23.4421 93.0984 23.4421C106.021 23.4421 115.125 28.4866 120.705 38.5757C125.404 47.181 125.991 56.3798 125.991 56.3798C126.285 62.6113 131.571 67.6558 137.739 67.6558H150.954C166.226 67.6558 176.505 77.1513 176.505 91.3947C176.505 103.264 168.869 112.166 157.416 114.54C150.954 115.727 146.843 121.958 148.018 128.487C149.192 134.125 153.891 137.982 159.471 137.982C160.352 137.982 160.94 137.982 161.821 137.685C184.435 133.234 200 114.243 200 91.0979C199.706 64.3917 179.148 44.2137 150.661 44.2137Z" fill="white" style="fill:white;fill-opacity:1;"/>
<path id="Vector_2" d="M68.1356 94.0653C62.5556 92.5816 56.9756 95.8457 55.5071 101.484L39.0607 162.908C37.5923 168.546 40.8228 174.184 46.4029 175.668C47.2839 175.964 48.165 175.964 49.046 175.964C53.4513 175.964 57.8566 172.997 59.0314 168.249L75.4778 106.825C76.9462 101.187 73.7157 95.5489 68.1356 94.0653Z" fill="white" style="fill:white;fill-opacity:1;"/>
<path id="Vector_3" d="M96.6219 118.101C91.0419 116.617 85.4619 119.881 83.9935 125.519L67.5471 186.944C66.0786 192.582 69.3092 198.22 74.8892 199.703C75.7703 200 76.6513 200 77.5324 200C81.9377 200 86.3429 197.033 87.5177 192.285L103.964 130.861C105.139 125.519 101.908 119.881 96.6219 118.101Z" fill="white" style="fill:white;fill-opacity:1;"/>
<path id="Vector_4" d="M137.738 94.0653C132.158 92.5816 126.578 95.8457 125.11 101.484L108.663 162.908C107.195 168.546 110.425 174.184 116.005 175.668C116.886 175.964 117.768 175.964 118.649 175.964C123.054 175.964 127.459 172.997 128.634 168.249L145.08 106.825C146.549 101.187 143.318 95.5489 137.738 94.0653Z" fill="white" style="fill:white;fill-opacity:1;"/>
</g>
</svg>
