<svg width="200" height="200" viewBox="0 0 183 228" fill="currentColor" xmlns="http://www.w3.org/2000/svg">
<g id="light-sleet">
<path id="Vector" d="M108.788 117.43C104.775 117.43 100.762 119.044 98.0873 122.273C92.7371 128.729 65.0945 163.03 65.0945 185.628C65.0945 212.262 87.3869 228 108.788 228C130.188 228 152.481 212.262 152.481 185.628C152.481 175.136 146.685 161.416 135.539 144.064C123.501 125.097 118.15 117.43 108.788 117.43Z" fill="white" style="fill:white;fill-opacity:1;"/>
<path id="Vector_2" d="M44.5849 36.7221C41.9098 33.8973 37.8971 31.8796 33.8845 31.8796C29.8718 31.8796 25.8592 33.4938 23.1841 36.7221C17.8339 43.1788 0 65.3734 0 81.515C0 101.692 16.9422 113.798 33.8845 113.798C50.8267 113.798 67.769 101.692 67.769 81.515C67.769 65.3734 49.935 43.1788 44.5849 36.7221Z" fill="white" style="fill:white;fill-opacity:1;"/>
<path id="Vector_3" d="M174.772 14.5274C168.976 5.64956 165.409 0 156.938 0C152.925 0 148.913 1.61415 146.238 4.84247C141.779 10.492 130.633 24.6159 130.633 35.5115C130.633 50.846 144.008 60.1274 156.492 60.1274C169.422 60.1274 182.351 50.846 182.351 35.5115C182.797 29.8619 180.122 23.0018 174.772 14.5274Z" fill="white" style="fill:white;fill-opacity:1;"/>
</g>
</svg>
