<svg width="200" height="200" viewBox="0 0 200 250" fill="currentColor" xmlns="http://www.w3.org/2000/svg">
<g id="light-snow">
<path id="Vector" d="M0 46.875C0 65.625 10.3704 81.6406 25.1852 89.0625C18.8889 96.4844 14.8148 105.859 14.8148 116.406C14.8148 138.281 32.2222 156.25 53.7037 156.25H154.815C179.63 156.25 200 135.156 200 109.766C200 84.375 180.37 64.0625 155.556 63.2813C145.556 43.75 125.926 31.25 104.074 31.25C98.1481 31.25 92.2222 32.4219 87.037 33.9844C81.8519 14.4531 64.8148 0 44.4444 0C20 0 0 21.0938 0 46.875ZM104.074 46.875C121.852 46.875 137.407 57.8125 144.074 74.2188L146.296 79.6875L151.852 79.2969C152.963 79.2969 153.704 79.2969 154.815 79.2969C171.481 79.2969 185.185 92.9688 185.185 110.156C185.185 126.953 171.481 141.016 154.815 141.016H53.7037C40.3704 141.016 29.6296 130.078 29.6296 116.797C29.6296 103.516 40.3704 92.5781 53.3333 92.5781H60.7407L61.4815 85.9375C64.0741 63.2812 82.5926 46.875 104.074 46.875ZM73.3333 40.625C60.7407 48.8281 51.4815 61.7188 47.7778 76.9531C45.9259 77.3438 44.0741 77.7344 42.2222 78.125C27.037 76.9531 14.8148 63.6719 14.8148 46.875C14.8148 29.6875 28.1481 15.625 44.4444 15.625C58.5185 15.625 70.7407 26.1719 73.3333 40.625Z" fill="white" style="fill:white;fill-opacity:1;"/>
<path id="Vector_2" d="M57.0369 174.219C54.074 171.484 49.2592 171.484 46.6666 174.219C45.1851 175.391 44.4443 177.734 44.4443 179.688C44.4443 181.641 45.1851 183.594 46.6666 185.156C48.148 186.719 49.9999 187.5 51.8517 187.5C53.7036 187.5 55.5554 186.719 57.0369 185.156C58.5184 183.594 59.2592 181.641 59.2592 179.688C59.2592 177.734 58.5184 175.391 57.0369 174.219Z" fill="white" style="fill:white;fill-opacity:1;"/>
<path id="Vector_3" d="M88.889 195.313C88.889 193.359 88.1483 191.406 86.6668 189.844C83.7038 187.109 78.889 187.109 76.2964 189.844C74.815 191.016 74.0742 193.359 74.0742 195.313C74.0742 197.266 74.815 199.219 76.2964 200.781C77.7779 202.344 79.6298 203.125 81.4816 203.125C83.3335 203.125 85.1853 202.344 86.6668 200.781C88.1483 199.219 88.889 197.266 88.889 195.313Z" fill="white" style="fill:white;fill-opacity:1;"/>
<path id="Vector_4" d="M131.111 174.219C128.148 171.484 123.333 171.484 120.741 174.219C119.259 175.391 118.519 177.734 118.519 179.688C118.519 181.641 119.259 183.594 120.741 185.156C122.222 186.719 124.074 187.5 125.926 187.5C127.778 187.5 129.63 186.719 131.111 185.156C132.593 183.594 133.333 181.641 133.333 179.688C133.333 177.734 132.593 175.391 131.111 174.219Z" fill="white" style="fill:white;fill-opacity:1;"/>
<path id="Vector_5" d="M125.926 210.938C125.926 208.984 125.185 207.031 123.704 205.469C120.741 202.734 115.926 202.734 113.334 205.469C111.852 206.641 111.111 208.984 111.111 210.938C111.111 212.891 111.852 214.844 113.334 216.406C114.815 217.969 116.667 218.75 118.519 218.75C120.371 218.75 122.222 217.969 123.704 216.406C125.185 214.844 125.926 212.891 125.926 210.938Z" fill="white" style="fill:white;fill-opacity:1;"/>
<path id="Vector_6" d="M88.8889 234.375C90.7407 234.375 92.5926 233.594 94.074 232.031C95.5555 230.469 96.2963 228.516 96.2963 226.563C96.2963 224.609 95.5555 222.656 94.074 221.094C91.1111 218.359 86.2963 218.359 83.7037 221.094C82.2222 222.266 81.4814 224.609 81.4814 226.563C81.4814 228.516 82.2222 230.469 83.7037 232.031C85.1852 233.594 87.037 234.375 88.8889 234.375Z" fill="white" style="fill:white;fill-opacity:1;"/>
<path id="Vector_7" d="M46.6666 236.719C45.1851 237.891 44.4443 240.234 44.4443 242.188C44.4443 244.141 45.1851 246.094 46.6666 247.656C48.148 249.219 49.9999 250 51.8517 250C53.7036 250 55.5554 249.219 57.0369 247.656C58.5184 246.094 59.2592 244.141 59.2592 242.188C59.2592 240.234 58.5184 238.281 57.0369 236.719C54.4443 233.594 49.2592 233.594 46.6666 236.719Z" fill="white" style="fill:white;fill-opacity:1;"/>
<path id="Vector_8" d="M125.926 250C127.778 250 129.63 249.219 131.111 247.656C132.593 246.094 133.333 244.141 133.333 242.188C133.333 240.234 132.593 238.281 131.111 236.719C128.148 233.984 123.333 233.984 120.741 236.719C119.259 237.891 118.519 240.234 118.519 242.188C118.519 244.141 119.259 246.094 120.741 247.656C122.222 249.219 124.074 250 125.926 250Z" fill="white" style="fill:white;fill-opacity:1;"/>
<path id="Vector_9" d="M150.37 221.094C148.889 222.266 148.148 224.609 148.148 226.563C148.148 228.516 148.889 230.469 150.37 232.031C151.852 233.594 153.704 234.375 155.555 234.375C157.407 234.375 159.259 233.594 160.741 232.031C162.222 230.469 162.963 228.516 162.963 226.563C162.963 224.609 162.222 222.656 160.741 221.094C158.148 217.969 152.963 217.969 150.37 221.094Z" fill="white" style="fill:white;fill-opacity:1;"/>
<path id="Vector_10" d="M168.148 192.969C169.63 191.406 170.37 189.453 170.37 187.5C170.37 185.547 169.63 183.594 168.148 182.031C165.185 179.297 160.37 179.297 157.778 182.031C156.296 183.594 155.556 185.547 155.556 187.5C155.556 189.453 156.296 191.406 157.778 192.969C159.259 194.531 161.111 195.313 162.963 195.313C164.815 195.313 166.667 194.531 168.148 192.969Z" fill="white" style="fill:white;fill-opacity:1;"/>
<path id="Vector_11" d="M31.8516 205.469C30.3701 206.641 29.6294 208.984 29.6294 210.938C29.6294 212.891 30.3701 214.844 31.8516 216.406C33.3331 217.969 35.1849 218.75 37.0368 218.75C38.8887 218.75 40.7405 217.969 42.222 216.406C43.7035 214.844 44.4442 212.891 44.4442 210.938C44.4442 208.984 43.7035 207.031 42.222 205.469C39.6294 202.344 34.4442 202.344 31.8516 205.469Z" fill="white" style="fill:white;fill-opacity:1;"/>
</g>
</svg>
