<svg width="200" height="200" viewBox="0 0 173 160" fill="currentColor" xmlns="http://www.w3.org/2000/svg">
<path d="M130.493 37.9014H127.695C126.677 33.8315 125.151 29.2528 122.607 24.4197C114.213 8.64865 99.2051 0 80.6359 0C61.8124 0 46.8044 8.64865 38.6645 24.4197C36.1208 29.5072 34.5946 34.5946 33.5771 38.6645C13.7361 42.2257 0 57.9968 0 78.6009C0 93.3545 7.37679 106.327 20.0954 113.704C24.9285 116.502 31.2878 114.722 34.0858 109.889C36.8839 105.056 35.1033 98.6963 30.2703 95.8982C24.1653 92.337 20.6041 85.9777 20.6041 78.6009C20.6041 66.3911 29.5071 58.2512 42.7345 58.2512C48.3307 58.2512 52.655 53.9269 52.9094 48.3307C52.655 45.5326 54.1812 20.0954 80.3815 20.0954C91.5739 20.0954 99.4594 24.4197 104.293 33.0684C108.362 40.4451 108.871 48.3307 108.871 48.3307C109.126 53.6725 113.704 57.9968 119.046 57.9968H130.493C143.72 57.9968 152.623 66.1367 152.623 78.3466C152.623 88.2671 145.755 98.6963 130.493 98.6963H124.897C119.3 98.6963 114.722 103.275 114.722 108.871C114.722 114.467 119.3 119.046 124.897 119.046H130.493C154.658 119.046 172.973 101.494 172.973 78.3466C172.973 54.9444 155.167 37.9014 130.493 37.9014Z" fill="white"/>
<path d="M83.6883 119.809C81.6534 119.809 79.8728 120.827 78.6009 122.353C76.3116 125.405 68.426 136.343 68.426 143.975C68.426 153.895 76.0572 160 83.6883 160C91.3195 160 98.9507 153.895 98.9507 143.975C98.9507 136.089 91.3195 125.405 88.7758 122.353C87.5039 120.572 85.7233 119.809 83.6883 119.809Z" fill="white"/>
<path d="M63.3386 90.5564C61.3036 88.0127 57.2336 88.0127 55.1987 90.5564C53.4181 92.8458 47.5675 101.24 47.5675 107.091C47.5675 114.722 53.4181 119.3 59.2686 119.3C65.1192 119.3 70.9697 114.722 70.9697 107.091C70.9697 100.986 65.1192 92.8458 63.3386 90.5564Z" fill="white"/>
<path d="M99.2051 75.5484C97.9332 75.5484 96.9157 76.0572 96.1526 77.0747C94.6264 79.1096 89.5389 86.2321 89.5389 91.3195C89.5389 97.6788 94.372 101.494 99.2051 101.494C104.038 101.494 108.871 97.6788 108.871 91.3195C108.871 88.0127 103.529 75.5484 99.2051 75.5484Z" fill="white"/>
</svg>
