<svg width="200" height="200" viewBox="0 0 200 200" fill="currentColor" xmlns="http://www.w3.org/2000/svg">
<g id="partly-cloudy">
<path id="Vector" d="M200 80C200 55.2 185.312 34.8 166.562 32.4C158.437 12.4 142.812 0 125 0C102.187 0 82.8125 20.8 79.0625 48.8C56.25 53.2 37.5 75.2 32.5 104.4C14.375 107.6 0 127.6 0 152C0 178.4 16.875 200 37.5 200H137.812H144.062V199.2C165 195.2 181.25 172 181.25 144C181.25 136.8 180 130 178.125 123.6C191.25 116 200 99.2 200 80ZM137.812 184H37.5C23.75 184 12.5 169.6 12.5 152C12.5 134.4 23.4375 120.4 37.1875 120L43.4375 120.4L44.0625 113.2C46.875 85.2 65.625 64 87.5 64C105.312 64 121.25 78 128.125 99.2L130 104.8L134.375 104C135.313 104 136.25 104 137.5 104C154.688 104 168.75 122 168.75 144C168.75 166 154.687 184 137.812 184ZM171.875 109.6C164.062 96.4 151.562 88 137.812 88C129.062 65.2 111.562 50 91.875 48.4C95.625 29.2 109.063 16 125 16C139.062 16 151.25 26.8 156.875 43.2L158.438 48H162.5C176.25 48 187.5 62.4 187.5 80C187.5 93.2 181.25 104.8 171.875 109.6Z" fill="white" style="fill:white;fill-opacity:1;"/>
</g>
</svg>
