<svg width="200" height="200" viewBox="0 0 200 200" fill="currentColor" xmlns="http://www.w3.org/2000/svg">
<g id="snow">
<path id="Vector" d="M100.049 46.875C109.726 46.875 117.644 39.8437 117.644 31.25V15.625C117.644 7.03125 109.726 0 100.049 0C90.3714 0 82.4536 7.03125 82.4536 15.625V31.25C82.4536 40.2344 90.3714 46.875 100.049 46.875Z" fill="white" style="fill:white;fill-opacity:1;"/>
<path id="Vector_2" d="M100.049 80.4688C94.3302 80.4688 88.6118 82.4219 84.6529 86.3281C80.694 89.8438 78.0547 94.9219 78.0547 100C78.0547 105.078 80.2541 110.156 84.6529 113.672C88.6118 117.188 94.3302 119.531 100.049 119.531C105.767 119.531 111.485 117.578 115.444 113.672C119.403 110.156 122.042 105.078 122.042 100C122.042 94.9219 119.843 89.8438 115.444 86.3281C111.485 82.4219 105.767 80.4688 100.049 80.4688Z" fill="white" style="fill:white;fill-opacity:1;"/>
<path id="Vector_3" d="M100.049 153.125C90.3714 153.125 82.4536 160.156 82.4536 168.75V184.375C82.4536 192.969 90.3714 200 100.049 200C109.726 200 117.644 192.969 117.644 184.375V168.75C117.644 159.766 109.726 153.125 100.049 153.125Z" fill="white" style="fill:white;fill-opacity:1;"/>
<path id="Vector_4" d="M166.91 81.25C169.989 81.25 173.068 80.4687 175.708 79.2968L191.103 71.4843C199.461 67.1875 202.54 57.4218 197.701 50C192.863 42.5781 181.866 39.8437 173.508 44.1406L158.112 51.9531C149.755 56.25 146.676 66.0156 151.514 73.4375C155.033 78.5156 160.752 81.25 166.91 81.25Z" fill="white" style="fill:white;fill-opacity:1;"/>
<path id="Vector_5" d="M24.388 120.703L8.99232 128.516C0.634642 132.812 -2.4445 142.578 2.39415 150C5.4733 155.078 11.6316 157.812 17.7899 157.812C20.869 157.812 23.9482 157.031 26.5874 155.859L41.9831 148.047C50.3408 143.75 53.42 133.984 48.5813 126.562C43.7427 119.141 32.7457 116.406 24.388 120.703Z" fill="white" style="fill:white;fill-opacity:1;"/>
<path id="Vector_6" d="M191.103 128.516L175.708 120.703C167.35 116.406 156.353 119.141 151.514 126.562C146.676 133.984 149.755 143.75 158.112 148.047L173.508 155.859C176.147 157.422 179.227 157.812 182.306 157.812C188.464 157.812 194.182 155.078 197.701 150C202.54 142.578 199.461 132.812 191.103 128.516Z" fill="white" style="fill:white;fill-opacity:1;"/>
<path id="Vector_7" d="M41.9839 52.3438L26.5882 44.5313C18.2305 40.2344 7.23354 42.5781 2.39489 50.3906C-2.44376 58.2031 0.195502 67.5781 8.99305 71.875L24.3888 79.6875C27.028 81.25 30.1072 81.6406 33.1863 81.6406C39.3446 81.6406 45.063 78.9062 48.582 73.8281C53.4207 66.0156 50.3416 56.6406 41.9839 52.3438Z" fill="white" style="fill:white;fill-opacity:1;"/>
</g>
</svg>
