<svg width="200" height="200" viewBox="0 0 200 250" fill="currentColor" xmlns="http://www.w3.org/2000/svg">
<g id="snow-full-moon-3">
<path id="Vector" d="M155.556 65.3226C145.556 45.1613 125.926 32.2581 104.074 32.2581C98.1481 32.2581 92.2222 33.4677 87.037 35.0806C81.8519 14.9194 64.8148 0 44.4444 0C20 0 0 21.7742 0 48.3871C0 67.7419 10.3704 84.2742 25.1852 91.9355C18.8889 99.1935 14.8148 109.274 14.8148 120.161C14.8148 142.742 32.2222 161.29 53.7037 161.29H154.815C179.63 161.29 200 139.516 200 113.306C200 87.0968 180.37 66.129 155.556 65.3226ZM14.8148 48.3871C14.8148 30.6452 28.1481 16.129 44.4444 16.129C58.5185 16.129 70.7407 27.0161 73.3333 41.9355C60.7407 50.4032 51.4815 63.7097 47.7778 79.4355C45.9259 79.8387 44.0741 80.2419 42.2222 80.6452C27.037 79.4355 14.8148 65.7258 14.8148 48.3871ZM154.815 145.161H53.7037C40.3704 145.161 29.6296 133.871 29.6296 120.161C29.6296 106.452 40.3704 95.1613 53.3333 95.1613L60.7407 95.5645L61.4815 88.3064C64.0741 65.7258 82.5926 48.7903 104.074 48.7903C121.852 48.7903 137.407 60.0806 144.074 77.0161L146.296 82.6613L151.852 82.2581C152.963 82.2581 153.704 82.2581 154.815 82.2581C171.481 82.2581 185.185 96.371 185.185 114.113C185.185 130.645 171.481 145.161 154.815 145.161Z" fill="white" style="fill:white;fill-opacity:1;"/>
<path id="Vector_2" d="M59.2593 185.484C59.2593 181.048 55.926 177.419 51.8519 177.419C47.7778 177.419 44.4445 181.048 44.4445 185.484C40.3704 185.484 37.0371 189.113 37.0371 193.548C37.0371 197.984 40.3704 201.613 44.4445 201.613C44.4445 206.048 47.7778 209.677 51.8519 209.677C55.926 209.677 59.2593 206.048 59.2593 201.613C63.3334 201.613 66.6667 197.984 66.6667 193.548C66.6667 189.113 63.3334 185.484 59.2593 185.484Z" fill="white" style="fill:white;fill-opacity:1;"/>
<path id="Vector_3" d="M103.703 177.419C99.6294 177.419 96.2961 181.048 96.2961 185.484C92.222 185.484 88.8887 189.113 88.8887 193.548C88.8887 197.984 92.222 201.613 96.2961 201.613C96.2961 206.048 99.6294 209.677 103.703 209.677C107.778 209.677 111.111 206.048 111.111 201.613C115.185 201.613 118.518 197.984 118.518 193.548C118.518 189.113 115.185 185.484 111.111 185.484C111.111 181.048 107.778 177.419 103.703 177.419Z" fill="white" style="fill:white;fill-opacity:1;"/>
<path id="Vector_4" d="M79.2582 217.742C75.1841 217.742 71.8508 221.371 71.8508 225.807C67.7767 225.807 64.4434 229.436 64.4434 233.871C64.4434 238.307 67.7767 241.936 71.8508 241.936C71.8508 246.371 75.1841 250 79.2582 250C83.3322 250 86.6656 246.371 86.6656 241.936C90.7397 241.936 94.073 238.307 94.073 233.871C94.073 229.436 90.7397 225.807 86.6656 225.807C86.6656 221.371 83.3322 217.742 79.2582 217.742Z" fill="white" style="fill:white;fill-opacity:1;"/>
<path id="Vector_5" d="M128.149 217.742C124.075 217.742 120.741 221.371 120.741 225.807C116.667 225.807 113.334 229.436 113.334 233.871C113.334 238.307 116.667 241.936 120.741 241.936C120.741 246.371 124.075 250 128.149 250C132.223 250 135.556 246.371 135.556 241.936C139.63 241.936 142.964 238.307 142.964 233.871C142.964 229.436 139.63 225.807 135.556 225.807C135.556 221.371 132.223 217.742 128.149 217.742Z" fill="white" style="fill:white;fill-opacity:1;"/>
<path id="Vector_6" d="M148.148 201.613C148.148 206.048 151.481 209.677 155.555 209.677C159.629 209.677 162.962 206.048 162.962 201.613C167.037 201.613 170.37 197.984 170.37 193.548C170.37 189.113 167.037 185.484 162.962 185.484C162.962 181.048 159.629 177.419 155.555 177.419C151.481 177.419 148.148 181.048 148.148 185.484C144.074 185.484 140.74 189.113 140.74 193.548C140.74 197.984 144.074 201.613 148.148 201.613Z" fill="white" style="fill:white;fill-opacity:1;"/>
</g>
</svg>
