<svg width="200" height="200" viewBox="0 0 200 200" fill="currentColor" xmlns="http://www.w3.org/2000/svg">
<g id="thunderstoms">
<path id="Vector" d="M150.661 48.2982H147.43C146.256 43.1118 144.493 37.2771 141.557 31.1183C131.865 11.0211 114.537 0 93.0984 0C71.3656 0 54.0382 11.0211 44.6402 31.1183C41.7034 37.6013 39.9413 44.0843 38.7665 49.2707C15.859 53.8087 0 73.906 0 100.162C0 117.018 7.34215 132.577 19.3833 141.977C24.6696 146.191 32.0118 144.895 35.8297 139.06C39.6476 133.225 38.4728 125.122 33.1865 120.908C27.3128 116.37 23.7885 108.59 23.7885 100.162C23.7885 84.6029 34.0675 74.2301 49.3392 74.2301C55.8003 74.2301 60.793 68.7196 61.0866 61.5883C61.0866 58.0227 62.8488 25.6078 93.0984 25.6078C106.021 25.6078 115.125 31.1183 120.705 42.1394C125.404 51.5397 125.991 61.5883 125.991 61.5883C126.285 68.3955 131.571 73.906 137.739 73.906H150.954C166.226 73.906 176.505 84.2788 176.505 99.8379C176.505 112.804 168.869 122.528 157.416 125.122C150.954 126.418 146.843 133.225 148.018 140.357C149.192 146.515 153.891 150.729 159.471 150.729C160.352 150.729 160.94 150.729 161.821 150.405C184.435 145.543 200 124.797 200 99.5138C199.706 70.3404 179.148 48.2982 150.661 48.2982Z" fill="white" style="fill:white;fill-opacity:1;"/>
<path id="Vector_2" d="M68.1353 100.486C62.5553 98.8655 56.9753 102.431 55.5068 108.59L51.9826 122.853C50.5142 129.011 53.7447 135.17 59.3247 136.791C60.2058 137.115 61.0869 137.115 61.9679 137.115C66.3732 137.115 70.7785 133.874 71.9532 128.687L75.4775 114.425C76.9459 108.59 73.7153 102.107 68.1353 100.486Z" fill="white" style="fill:white;fill-opacity:1;"/>
<path id="Vector_3" d="M55.5074 153.323C49.9274 151.702 44.3473 155.267 42.8789 161.426L39.3547 175.689C37.8862 181.848 41.1168 188.006 46.6968 189.627C47.5779 189.951 48.4589 189.951 49.34 189.951C53.7453 189.951 58.1506 186.71 59.3253 181.523L62.8495 167.261C64.0243 161.102 60.7937 154.943 55.5074 153.323Z" fill="white" style="fill:white;fill-opacity:1;"/>
<path id="Vector_4" d="M133.921 129.66H120.999L137.151 104.7C138.032 103.079 138.326 101.134 137.445 99.5138C136.564 97.893 135.096 96.9206 133.627 96.9206H101.322C99.5596 96.9206 97.7975 98.2172 97.2102 100.162L79.2953 151.378C78.708 152.998 79.0016 154.619 79.8827 155.916C80.7638 157.212 81.9385 157.861 83.4069 157.861H92.8049L80.4701 193.517C79.589 195.786 80.4701 198.055 82.2322 199.352C82.8196 199.676 83.7006 200 84.5817 200C85.7564 200 86.9312 199.352 87.8122 198.379L136.564 137.439C137.739 136.143 138.032 133.874 137.151 132.253C137.151 130.956 135.683 129.66 133.921 129.66Z" fill="white" style="fill:white;fill-opacity:1;"/>
</g>
</svg>
