<svg width="200" height="200" viewBox="0 0 200 200" fill="currentColor" xmlns="http://www.w3.org/2000/svg">
<g id="thunder">
<path id="Vector" d="M155.313 33.7229C145.313 13.0217 125 0 103.125 0C76.25 0 52.5 20.0334 45.9375 47.0785C44.0625 47.0785 42.5 46.7446 40.625 46.7446C18.125 46.7446 0 66.4441 0 90.1503C0 113.856 18.125 133.556 40.625 133.556H68.75C72.1875 133.556 75 130.551 75 126.878C75 123.205 72.1875 120.2 68.75 120.2H40.625C25 120.2 12.5 106.845 12.5 90.1503C12.5 73.4558 25 60.1002 40.625 60.1002C43.4375 60.1002 46.25 60.4341 48.75 61.4357L55.625 63.773L56.5625 56.0935C60.3125 31.7195 80 13.3556 103.125 13.3556C121.563 13.3556 138.438 25.0417 145.938 43.0718L147.812 47.0785L152.813 46.7446C153.125 46.7446 153.125 46.7446 153.437 46.7446C172.5 46.7446 187.812 63.1052 187.812 83.4725C187.812 103.84 172.5 120.2 153.75 120.2H131.25C127.812 120.2 125 123.205 125 126.878C125 130.551 127.812 133.556 131.25 133.556H153.125C179.063 133.556 200 111.185 200 83.4725C200 56.7613 180.313 35.0584 155.313 33.7229Z" fill="white" style="fill:white;fill-opacity:1;"/>
<path id="Vector_2" d="M116.562 106.845C113.75 104.507 110 104.841 107.812 107.846L68.1245 160.267H93.1245L71.2495 189.316C69.062 192.321 69.3745 196.327 72.187 198.664C73.437 199.666 74.687 200 75.937 200C77.812 200 79.687 198.998 80.937 197.329L119.375 146.912H94.3745L117.5 116.194C119.687 113.189 119.062 109.182 116.562 106.845Z" fill="white" style="fill:white;fill-opacity:1;"/>
<path id="Vector_3" d="M45.9375 141.903C43.125 139.566 39.375 139.9 37.1875 142.905L14.0625 173.623H32.8125L25.9375 182.972C23.75 185.977 24.0625 189.983 26.875 192.321C27.8125 193.322 29.375 193.656 30.625 193.656C32.5 193.656 34.375 192.654 35.625 190.985L58.75 159.933H40L46.875 150.918C49.0625 148.247 48.4375 144.24 45.9375 141.903Z" fill="white" style="fill:white;fill-opacity:1;"/>
<path id="Vector_4" d="M150 141.903C147.187 139.566 143.437 139.9 141.25 142.905L118.125 173.623H136.875L130 182.972C127.812 185.977 128.125 189.983 130.937 192.321C132.187 193.322 133.437 193.656 134.687 193.656C136.562 193.656 138.437 192.654 139.687 190.985L162.812 159.933H144.062L150.937 150.918C153.437 148.247 152.812 144.24 150 141.903Z" fill="white" style="fill:white;fill-opacity:1;"/>
</g>
</svg>
