<?xml version="1.0" encoding="UTF-8"?>
<svg version="1.1" xmlns="http://www.w3.org/2000/svg" width="256" height="256">
<path d="M0 0 C2.72869407 0.03287583 5.2966618 0.56397771 8 1 C8 1.66 8 2.32 8 3 C8.928125 3.020625 9.85625 3.04125 10.8125 3.0625 C16.56411354 3.86395435 21.55089856 7.43629188 26 11 C27.12109375 13.03515625 27.12109375 13.03515625 28 15 C29.51436608 16.60684203 29.51436608 16.60684203 31.25 18.125 C34.95188399 21.67231681 37.29939836 25.57505836 39.73828125 30.05859375 C40.36283203 31.01958984 40.36283203 31.01958984 41 32 C41.66 32 42.32 32 43 32 C43.12375 32.928125 43.2475 33.85625 43.375 34.8125 C43.81533082 38.13925235 43.81533082 38.13925235 46 41 C46.33 41.66 46.66 42.32 47 43 C49.97 43 52.94 43 56 43 C56.33 43.66 56.66 44.32 57 45 C59.70895062 45.65655886 59.70895062 45.65655886 62.875 46.0625 C66.86198667 46.64373541 70.36381022 47.18190511 74 49 C74.70125 49.0825 75.4025 49.165 76.125 49.25 C80.23166555 50.32130406 83.61457681 52.46093261 87 55 C87.33 55.66 87.66 56.32 88 57 C88.99 57.33 89.98 57.66 91 58 C91.68792086 59.32249276 92.35184647 60.65756966 93 62 C94.18922445 63.22749834 95.42320909 64.4124672 96.6875 65.5625 C106.69955456 75.37503898 112.4943716 88.33293602 115 102 C115.66 102 116.32 102 117 102 C117 103.98 117 105.96 117 108 C121.81391499 110.4069575 126.84160674 112.70374994 132.1875 113.4375 C136.13081027 114.22616205 139.09777901 116.23369569 142 119 C142.33 119.99 142.66 120.98 143 122 C143.598125 122.144375 144.19625 122.28875 144.8125 122.4375 C147.81620844 123.20988217 149.04260729 124.63762949 151 127 C151.75 129.25 151.75 129.25 152 131 C152.66 131 153.32 131 154 131 C154.10441406 131.53109375 154.20882812 132.0621875 154.31640625 132.609375 C155.51409705 136.79787083 157.62501482 140.60813854 159.52734375 144.515625 C165.35820773 158.31172757 164.71998068 174.09285785 159.35546875 187.90234375 C158.90816406 188.92457031 158.46085938 189.94679687 158 191 C157.49919922 192.20849609 157.49919922 192.20849609 156.98828125 193.44140625 C156.0625 195.375 156.0625 195.375 154 198 C150.75 198.9375 150.75 198.9375 148 199 C147.67 198.34 147.34 197.68 147 197 C144.24973583 196.94595551 141.50053797 196.90630694 138.75 196.875 C137.58404297 196.84986328 137.58404297 196.84986328 136.39453125 196.82421875 C130.90964062 196.74299993 130.90964062 196.74299993 126 199 C119.98644277 203.00903816 115.34330885 205.6119424 108 205 C107.67 204.01 107.34 203.02 107 202 C104.89415562 201.19436362 104.89415562 201.19436362 102.4375 200.8125 C101.61121094 200.65394531 100.78492188 200.49539062 99.93359375 200.33203125 C99.29550781 200.22246094 98.65742188 200.11289063 98 200 C97.10205806 197.05633449 96.67037557 195.62359662 98.13989258 192.84350586 C98.71892334 192.14104736 99.2979541 191.43858887 99.89453125 190.71484375 C100.52037109 189.93689453 101.14621094 189.15894531 101.79101562 188.35742188 C102.45810547 187.55884766 103.12519531 186.76027344 103.8125 185.9375 C105.11353959 184.34478192 106.41182492 182.74980907 107.70703125 181.15234375 C108.2894458 180.45101318 108.87186035 179.74968262 109.47192383 179.02709961 C110.93428132 177.08718041 111.99384882 175.20499593 113 173 C112.030625 172.21625 111.06125 171.4325 110.0625 170.625 C108.16037654 169.08711295 107.10370043 168.20740087 106 166 C105.01 165.67 104.02 165.34 103 165 C102.67 164.34 102.34 163.68 102 163 C101.01 162.67 100.02 162.34 99 162 C99 161.34 99 160.68 99 160 C98.13375 159.87625 97.2675 159.7525 96.375 159.625 C93.10486147 159.01941879 90.12743101 158.11693965 87 157 C87 156.34 87 155.68 87 155 C79.23918591 153.27537465 70.38888017 152.77920608 63 156 C62.01 156.33 61.02 156.66 60 157 C57.10977882 158.44511059 54.66659446 160.26092607 52.125 162.25 C49 164 49 164 46.5 163.4375 C45.675 162.963125 44.85 162.48875 44 162 C42.906875 161.46375 41.81375 160.9275 40.6875 160.375 C39.800625 159.92125 38.91375 159.4675 38 159 C38 158.34 38 157.68 38 157 C36.02 157 34.04 157 32 157 C32 156.34 32 155.68 32 155 C24.56006938 153.27994265 16.45392316 153.34357263 9 155 C9 155.66 9 156.32 9 157 C8.30132812 157.20496094 7.60265625 157.40992188 6.8828125 157.62109375 C5.97273438 157.89050781 5.06265625 158.15992188 4.125 158.4375 C3.22007813 158.70433594 2.31515625 158.97117188 1.3828125 159.24609375 C-0.98275381 159.92613826 -0.98275381 159.92613826 -3 161 C-3.33 161.66 -3.66 162.32 -4 163 C-4.99 163.33 -5.98 163.66 -7 164 C-7.33 164.66 -7.66 165.32 -8 166 C-8.99 166.33 -9.98 166.66 -11 167 C-13.72926391 169.31256494 -13.72926391 169.31256494 -16 172 C-16 176.54665722 -13.33655765 179.07065279 -10.6875 182.625 C-9.93823242 183.66527344 -9.93823242 183.66527344 -9.17382812 184.7265625 C-8.68720703 185.3865625 -8.20058594 186.0465625 -7.69921875 186.7265625 C-7.25408936 187.33064941 -6.80895996 187.93473633 -6.3503418 188.55712891 C-4.95232705 190.28065842 -4.95232705 190.28065842 -2 191 C-0.67402377 197.38879457 -0.67402377 197.38879457 -2 199.875 C-4.8964982 201.50428024 -7.72574988 201.69110848 -11 202 C-11.33 202.99 -11.66 203.98 -12 205 C-17.3378779 205.44482316 -20.27691649 204.59326722 -24.93359375 202.0234375 C-28.17716392 200.4169812 -31.47058244 199.75630376 -35 199 C-35 198.34 -35 197.68 -35 197 C-40.28 197 -45.56 197 -51 197 C-51 197.66 -51 198.32 -51 199 C-52.65 199 -54.3 199 -56 199 C-56.391875 198.05125 -56.78375 197.1025 -57.1875 196.125 C-58.47900327 193.07680746 -59.9529458 190.17584874 -61.5 187.25 C-68.76138816 172.52978413 -69.59842764 154.73114986 -64.3203125 139.13671875 C-60.5884448 130.27077271 -55.69510679 123.15525894 -49.015625 116.25390625 C-45.61807943 112.45471285 -44 110.17841093 -44 105 C-44.8971875 104.9071875 -44.8971875 104.9071875 -45.8125 104.8125 C-48.86571667 103.67844809 -49.36029395 101.75470617 -51 99 C-51.86625 98.484375 -52.7325 97.96875 -53.625 97.4375 C-56 96 -56 96 -56.53735352 94.13574219 C-56.69002686 93.43094727 -56.8427002 92.72615234 -57 92 C-57.55485666 90.77908297 -58.14930307 89.57555926 -58.77734375 88.390625 C-59.12603516 87.71773438 -59.47472656 87.04484375 -59.83398438 86.3515625 C-60.56238803 84.96437253 -61.29409541 83.57891168 -62.02929688 82.1953125 C-66.18261879 74.14872935 -67.34665734 67.0175373 -67.3125 58 C-67.32861328 57.14921875 -67.34472656 56.2984375 -67.36132812 55.421875 C-67.36572934 49.68269374 -66.45590545 45.1844495 -64 40 C-63.56300781 39.02160156 -63.12601563 38.04320312 -62.67578125 37.03515625 C-61 35 -61 35 -58.29296875 34.37109375 C-51.98036176 34.50608031 -47.9958622 34.75351713 -43 39 C-41.6808418 39.69429379 -40.35350594 40.37530495 -39 41 C-39 41.33 -39 41.66 -39 42 C-35.37 42 -31.74 42 -28 42 C-27.505 41.01 -27.505 41.01 -27 40 C-25.2578125 38.96484375 -25.2578125 38.96484375 -23.125 37.9375 C-22.42632812 37.59589844 -21.72765625 37.25429688 -21.0078125 36.90234375 C-19 36 -19 36 -16 35 C-15.67 34.01 -15.34 33.02 -15 32 C-14.01 31.67 -13.02 31.34 -12 31 C-8.71020951 25.20771932 -8.62147418 18.50537468 -8.50390625 12.015625 C-7.61219463 6.67918026 -3.68552715 3.68552715 0 0 Z M11 32 C10.67128906 32.75023437 10.34257813 33.50046875 10.00390625 34.2734375 C6.78637572 41.19679587 3.20191034 46.4874985 -2.14453125 51.94140625 C-4.20679778 53.95329736 -4.20679778 53.95329736 -5 57 C-8.62663522 59.69407188 -11.59463233 60.34735294 -16 61 C-17.62803219 61.46876099 -19.25267718 61.94934598 -20.875 62.4375 C-28.12710175 64.48373618 -35.5286986 65.20318617 -43 66 C-43.90875448 68.49193054 -44.08393372 69.73031131 -43.28515625 72.296875 C-40.21042104 78.46599229 -36.65414215 83.89860522 -31 88 C-28.52809976 88.7058443 -28.52809976 88.7058443 -26 89 C-18.36238532 90.63761468 -18.36238532 90.63761468 -16 93 C-15.72027344 92.26136719 -15.44054687 91.52273437 -15.15234375 90.76171875 C-10.5943252 79.22744029 -5.0435534 70.4742487 4.05859375 61.99609375 C6.2324062 60.22513072 6.2324062 60.22513072 6 58 C7.32 57.67 8.64 57.34 10 57 C10 56.34 10 55.68 10 55 C11.65 54.67 13.3 54.34 15 54 C15 53.34 15 52.68 15 52 C16.7015625 51.4121875 16.7015625 51.4121875 18.4375 50.8125 C22.12259798 49.43474384 22.12259798 49.43474384 22.89453125 46.7109375 C23.02912983 43.25125544 22.09438528 41.71521111 20.25 38.8125 C19.71890625 37.95269531 19.1878125 37.09289063 18.640625 36.20703125 C17.02285658 33.77196765 17.02285658 33.77196765 14 32 C13.01 32 12.02 32 11 32 Z M23 47 C24 50 24 50 24 50 Z M-45 63 C-44 67 -44 67 -44 67 Z M-43 64 C-39 65 -39 65 -39 65 Z M-19 171 C-18 173 -18 173 -18 173 Z M114 171 C115 173 115 173 115 173 Z " fill="#6A65FD" transform="translate(80,5)"/>
<path d="M0 0 C1.03125 0.7425 2.0625 1.485 3.125 2.25 C6.46236484 4.28143947 8.16067432 4.50078161 12 4 C14.38914525 3.11260319 15.69264086 2.34927175 17.375 0.4375 C19.70402275 -1.62278935 21.97538534 -1.6639317 25 -2 C25 -2.66 25 -3.32 25 -4 C46.1656705 -4.54896552 46.1656705 -4.54896552 54 0 C54.76953125 1.8515625 54.76953125 1.8515625 55 4 C54.0390625 5.78125 54.0390625 5.78125 52.625 7.5 C51.02301033 9.46892585 50.07559824 10.65794893 49.5234375 13.15625 C49.35070312 13.7646875 49.17796875 14.373125 49 15 C47.515 15.495 47.515 15.495 46 16 C44.77554716 17.62948064 44.77554716 17.62948064 43.8125 19.5625 C43.214375 20.696875 42.61625 21.83125 42 23 C41.40832031 22.90460938 40.81664062 22.80921875 40.20703125 22.7109375 C33.87540644 21.78876845 33.87540644 21.78876845 28 24 C27.38125 24.680625 26.7625 25.36125 26.125 26.0625 C23.216072 28.71475788 20.86212962 28.6612167 17 29 C15.7625 29.2784375 15.7625 29.2784375 14.5 29.5625 C11.26630538 30.12839656 8.28485905 30.1077003 5 30 C3.86884766 30.00966797 3.86884766 30.00966797 2.71484375 30.01953125 C-4.00370742 29.79593446 -8.00720066 27.47817555 -13.359375 23.49609375 C-16.51221677 21.70979435 -18.42893865 21.73168255 -22 22 C-22.99 22 -23.98 22 -25 22 C-26.359375 20.34765625 -26.359375 20.34765625 -27.75 18.0625 C-30.44963169 13.73354514 -33.48826732 9.95069926 -36.875 6.140625 C-38 4 -38 4 -37.45703125 1.3125 C-36 -1 -36 -1 -34.01171875 -1.890625 C-33.24472656 -2.00921875 -32.47773438 -2.1278125 -31.6875 -2.25 C-30.92824219 -2.37890625 -30.16898438 -2.5078125 -29.38671875 -2.640625 C-28.59910156 -2.75921875 -27.81148437 -2.8778125 -27 -3 C-26.21882812 -3.17402344 -25.43765625 -3.34804687 -24.6328125 -3.52734375 C-15.92813664 -5.09005262 -7.40796161 -5.14731605 0 0 Z " fill="#A707FC" transform="translate(183,219)"/>
<path d="M0 0 C1.25425781 0.00902344 2.50851563 0.01804688 3.80078125 0.02734375 C4.75339844 0.03894531 5.70601562 0.05054688 6.6875 0.0625 C6.6875 0.7225 6.6875 1.3825 6.6875 2.0625 C7.615625 2.165625 8.54375 2.26875 9.5 2.375 C12.87154102 3.10219512 13.5135045 3.59205057 15.6875 6.0625 C18.85861191 8.02858938 21.23897087 8.28482971 24.9375 8.1875 C26.27554688 8.16042969 26.27554688 8.16042969 27.640625 8.1328125 C28.31609375 8.10960937 28.9915625 8.08640625 29.6875 8.0625 C30.0278125 7.1653125 30.0278125 7.1653125 30.375 6.25 C32.12457141 3.33404765 33.582813 2.46149969 36.6875 1.0625 C39.48654328 0.63994939 42.06638905 0.36573264 44.875 0.25 C45.6287793 0.21285889 46.38255859 0.17571777 47.15917969 0.13745117 C52.90652983 -0.0716892 58.16129045 0.37485517 63.6875 2.0625 C64.698125 2.35125 65.70875 2.64 66.75 2.9375 C68.6875 4.0625 68.6875 4.0625 69.48022461 5.88037109 C69.76488566 8.87719142 68.8148945 9.78969172 66.94140625 12.1015625 C66.35166016 12.84664062 65.76191406 13.59171875 65.15429688 14.359375 C64.52587891 15.12765625 63.89746094 15.8959375 63.25 16.6875 C62.01812098 18.21813193 60.79004805 19.75183747 59.56640625 21.2890625 C59.0154126 21.96533691 58.46441895 22.64161133 57.89672852 23.33837891 C56.49609698 24.98441909 56.49609698 24.98441909 56.6875 27.0625 C55.429375 26.753125 54.17125 26.44375 52.875 26.125 C48.26594387 25.57477159 46.34595474 26.68665578 42.6875 29.4375 C34.84273264 34.96524747 25.81127811 34.71834672 16.55078125 33.7265625 C12.45948002 32.98046571 8.39872654 31.97797176 4.6875 30.0625 C4.3575 29.4025 4.0275 28.7425 3.6875 28.0625 C-0.0935054 26.11798294 -3.10433413 25.88342911 -7.3125 26.0625 C-8.6325 26.0625 -9.9525 26.0625 -11.3125 26.0625 C-12.17875 24.45375 -12.17875 24.45375 -13.0625 22.8125 C-15.18306609 19.09774948 -17.40674943 16.01537528 -21.3125 14.0625 C-22.36801517 10.05154237 -22.63919213 7.0425764 -21.3125 3.0625 C-19.421875 2.3671875 -19.421875 2.3671875 -17.0625 1.9375 C-15.91007812 1.71707031 -15.91007812 1.71707031 -14.734375 1.4921875 C-13.93515625 1.35039062 -13.1359375 1.20859375 -12.3125 1.0625 C-11.54035156 0.88074219 -10.76820312 0.69898438 -9.97265625 0.51171875 C-6.61662937 -0.05501119 -3.40156939 -0.03179037 0 0 Z " fill="#7E44FB" transform="translate(41.3125,214.9375)"/>
<path d="M0 0 C1.27327148 -0.00386719 1.27327148 -0.00386719 2.57226562 -0.0078125 C3.45205078 -0.00007812 4.33183594 0.00765625 5.23828125 0.015625 C6.09873047 0.00789062 6.95917969 0.00015625 7.84570312 -0.0078125 C22.09980592 0.0351539 22.09980592 0.0351539 26.19799805 3.76464844 C26.6444165 4.2599707 27.09083496 4.75529297 27.55078125 5.265625 C30.5737841 7.3929233 33.66545689 7.79193619 37.33984375 7.73046875 C40.89631818 6.98272943 43.37948333 4.91488591 46.1796875 2.67578125 C51.82997136 -0.68460174 59.26359654 0.05351088 65.67578125 0.015625 C66.55621094 -0.005 67.43664062 -0.025625 68.34375 -0.046875 C76.90869734 -0.09854889 76.90869734 -0.09854889 80.55078125 3.265625 C81.734375 5.44140625 81.734375 5.44140625 81.55078125 8.265625 C79.86532471 11.23125359 77.76507843 13.81412846 75.61328125 16.453125 C74.47528236 17.88102752 73.34096739 19.31187636 72.2109375 20.74609375 C71.70183838 21.37410889 71.19273926 22.00212402 70.66821289 22.64916992 C69.36123414 24.21230512 69.36123414 24.21230512 69.55078125 26.265625 C68.80828125 26.100625 68.06578125 25.935625 67.30078125 25.765625 C63.5540306 25.08439761 61.27412195 24.84304742 57.9296875 26.796875 C56.05383229 28.10815243 54.1788299 29.4206507 52.3046875 30.734375 C49.38181937 32.3595726 47.83081736 32.5989862 44.55078125 32.265625 C44.55078125 32.925625 44.55078125 33.585625 44.55078125 34.265625 C20.84683443 33.06462503 20.84683443 33.06462503 11.875 25.53125 C11.10800781 25.11359375 10.34101562 24.6959375 9.55078125 24.265625 C6.93831885 25.06682512 6.93831885 25.06682512 4.55078125 26.265625 C1.55078125 25.265625 1.55078125 25.265625 -0.44921875 23.265625 C-1.10921875 22.935625 -1.76921875 22.605625 -2.44921875 22.265625 C-2.57941406 21.51152344 -2.70960937 20.75742188 -2.84375 19.98046875 C-3.57735734 16.69106808 -4.89022633 15.30412155 -7.13671875 12.828125 C-10.48926567 8.70614109 -10.48926567 8.70614109 -10.13671875 4.828125 C-7.48900049 0.80751579 -4.69063083 0.01392912 0 0 Z M32.55078125 9.265625 C32.55078125 9.595625 32.55078125 9.925625 32.55078125 10.265625 C34.53078125 10.265625 36.51078125 10.265625 38.55078125 10.265625 C38.55078125 9.935625 38.55078125 9.605625 38.55078125 9.265625 C36.57078125 9.265625 34.59078125 9.265625 32.55078125 9.265625 Z " fill="#863AFB" transform="translate(92.44921875,172.734375)"/>
<path d="M0 0 C2.72869407 0.03287583 5.2966618 0.56397771 8 1 C8 1.66 8 2.32 8 3 C8.99 3.061875 9.98 3.12375 11 3.1875 C15.71827991 3.82432306 19.1745514 6.30728164 23 9 C22.67 9.66 22.34 10.32 22 11 C19.67843403 11.40729228 17.3431213 11.74438677 15 12 C14.67 10.35 14.34 8.7 14 7 C12.02 7 10.04 7 8 7 C7.67 6.34 7.34 5.68 7 5 C6.01 5 5.02 5 4 5 C4 4.34 4 3.68 4 3 C1.03 2.505 1.03 2.505 -2 2 C-1.34 1.34 -0.68 0.68 0 0 Z " fill="#38A0EB" transform="translate(80,5)"/>
<path d="M0 0 C0.7734375 0.2165625 0.7734375 0.2165625 1.5625 0.4375 C4.68509571 1.15809901 7.82550692 1.57266439 11 2 C11.33 2.99 11.66 3.98 12 5 C12.99 4.67 13.98 4.34 15 4 C18.1875 5.4375 18.1875 5.4375 21 7 C19.68 8.32 18.36 9.64 17 11 C13.2089881 9.55049545 9.6125362 7.84827434 6 6 C6 5.34 6 4.68 6 4 C4.02 4 2.04 4 0 4 C0 2.68 0 1.36 0 0 Z " fill="#8F4AF1" transform="translate(112,158)"/>
<path d="M0 0 C1.98 0 3.96 0 6 0 C6 0.99 6 1.98 6 3 C4.68 2.67 3.36 2.34 2 2 C1.773125 2.61875 1.54625 3.2375 1.3125 3.875 C-0.40446275 6.65484445 -1.996823 6.81269746 -5 8 C-7.81331378 10.39583651 -7.81331378 10.39583651 -10 13 C-10 13.66 -10 14.32 -10 15 C-11.65 15 -13.3 15 -15 15 C-14.57847656 14.44570312 -14.15695313 13.89140625 -13.72265625 13.3203125 C-13.17480469 12.59585938 -12.62695312 11.87140625 -12.0625 11.125 C-11.24458984 10.04605469 -11.24458984 10.04605469 -10.41015625 8.9453125 C-8.96035376 7.05642921 -8.96035376 7.05642921 -8 5 C-7.01 4.67 -6.02 4.34 -5 4 C-4.67 3.34 -4.34 2.68 -4 2 C-1.9375 1.375 -1.9375 1.375 0 1 C0 0.67 0 0.34 0 0 Z " fill="#4B8BF4" transform="translate(94,57)"/>
<path d="M0 0 C0 0.99 0 1.98 0 3 C0.31421071 5.00309329 0.6451046 7.00371336 1 9 C-0.670625 9.12375 -0.670625 9.12375 -2.375 9.25 C-3.57125 9.4975 -4.7675 9.745 -6 10 C-7.3169667 11.88370471 -7.3169667 11.88370471 -8 14 C-8.99 14.66 -9.98 15.32 -11 16 C-9.32076975 12.19866558 -6.88537166 9.02917298 -4.375 5.75 C-3.95476562 5.19570312 -3.53453125 4.64140625 -3.1015625 4.0703125 C-2.07061281 2.71133337 -1.03570089 1.35536165 0 0 Z " fill="#9C1AF9" transform="translate(191,182)"/>
<path d="M0 0 C1.98 0 3.96 0 6 0 C6 0.99 6 1.98 6 3 C4.35546875 4.38671875 4.35546875 4.38671875 2.1875 5.6875 C1.47980469 6.12449219 0.77210937 6.56148437 0.04296875 7.01171875 C-2 8 -2 8 -5 8 C-5 6.68 -5 5.36 -5 4 C-4.360625 3.71125 -3.72125 3.4225 -3.0625 3.125 C-0.84793921 2.17176549 -0.84793921 2.17176549 0 0 Z " fill="#8D31F3" transform="translate(80,240)"/>
<path d="M0 0 C0.66 0.33 1.32 0.66 2 1 C1.814375 1.825 1.62875 2.65 1.4375 3.5 C1.01409144 6.88726848 1.35867771 9.6152029 1.875 12.96484375 C2.0785292 16.27855354 1.10050811 18.89268297 0 22 C-0.33 22 -0.66 22 -1 22 C-1.02700675 19.08327116 -1.04684237 16.16679323 -1.0625 13.25 C-1.07087891 12.425 -1.07925781 11.6 -1.08789062 10.75 C-1.09111328 9.95078125 -1.09433594 9.1515625 -1.09765625 8.328125 C-1.10289307 7.5949707 -1.10812988 6.86181641 -1.11352539 6.10644531 C-0.9975109 3.9538151 -0.59073271 2.0685865 0 0 Z " fill="#33B8F9" transform="translate(14,49)"/>
<path d="M0 0 C-1.3125 2.5 -1.3125 2.5 -3 5 C-6.66666667 5 -10.33333333 5 -14 5 C-11.69658115 1.54487173 -10.85120076 1.3471444 -7 0.25 C-6.113125 -0.01296875 -5.22625 -0.2759375 -4.3125 -0.546875 C-2 -1 -2 -1 0 0 Z " fill="#962FF5" transform="translate(101,236)"/>
<path d="M0 0 C0.99 0.33 1.98 0.66 3 1 C3.680625 1.144375 4.36125 1.28875 5.0625 1.4375 C7 2 7 2 9 4 C9 4.66 9 5.32 9 6 C7.35 6.33 5.7 6.66 4 7 C3.67 6.34 3.34 5.68 3 5 C0.97536745 4.34786708 0.97536745 4.34786708 -1 4 C-0.67 2.68 -0.34 1.36 0 0 Z " fill="#7258F3" transform="translate(45,215)"/>
<path d="M0 0 C0.7734375 0.2165625 0.7734375 0.2165625 1.5625 0.4375 C4.68509571 1.15809901 7.82550692 1.57266439 11 2 C11.33 3.65 11.66 5.3 12 7 C9 7 9 7 6 5 C3.99967627 3.99983813 2.16874252 3.50603992 0 3 C0 2.01 0 1.02 0 0 Z " fill="#7045EA" transform="translate(112,158)"/>
<path d="M0 0 C2.88437779 1.29299694 4.87219421 2.65941363 7 5 C6.67 5.99 6.34 6.98 6 8 C5.01 8.33 4.02 8.66 3 9 C0.90250005 6.64031256 0.03094296 5.45383006 -0.1875 2.25 C-0.125625 1.5075 -0.06375 0.765 0 0 Z " fill="#961DEA" transform="translate(224,127)"/>
<path d="M0 0 C2.475 0.99 2.475 0.99 5 2 C6.125 8.75 6.125 8.75 5 11 C2.19151983 9.59575991 2.07585415 7.89135802 1 5 C0.34786461 3.65949948 -0.31379969 2.32338632 -1 1 C-0.67 0.67 -0.34 0.34 0 0 Z " fill="#6E48EF" transform="translate(73,194)"/>
<path d="M0 0 C0.66 0 1.32 0 2 0 C2.33 0.66 2.66 1.32 3 2 C4.64363134 2.72159424 6.31050386 3.39351421 8 4 C8 4.99 8 5.98 8 7 C6.88625 6.7525 6.88625 6.7525 5.75 6.5 C2.80993422 5.88074304 2.80993422 5.88074304 -1 6 C-1.66 5.67 -2.32 5.34 -3 5 C-1.625 2.5 -1.625 2.5 0 0 Z " fill="#921DF4" transform="translate(154,192)"/>
<path d="M0 0 C0.99 0.33 1.98 0.66 3 1 C3 1.66 3 2.32 3 3 C4.32 3.66 5.64 4.32 7 5 C2.71 5.66 -1.58 6.32 -6 7 C-5.01 6.01 -4.02 5.02 -3 4 C-2.34 4 -1.68 4 -1 4 C-0.67 2.68 -0.34 1.36 0 0 Z " fill="#7C3DF8" transform="translate(147,153)"/>
<path d="M0 0 C1.32 0 2.64 0 4 0 C4.69710731 1.28650706 5.38242876 2.57940665 6.0625 3.875 C6.63677734 4.95394531 6.63677734 4.95394531 7.22265625 6.0546875 C7.47917969 6.69664062 7.73570312 7.33859375 8 8 C7.67 8.66 7.34 9.32 7 10 C1.21538462 5.69230769 1.21538462 5.69230769 0.125 2.1875 C0.08375 1.465625 0.0425 0.74375 0 0 Z " fill="#8C17ED" transform="translate(186,168)"/>
<path d="M0 0 C0.66 0.33 1.32 0.66 2 1 C0.68 3.31 -0.64 5.62 -2 8 C-3.32 8 -4.64 8 -6 8 C-6 7.34 -6 6.68 -6 6 C-6.99 5.67 -7.98 5.34 -9 5 C-8.43410156 4.72285156 -7.86820313 4.44570313 -7.28515625 4.16015625 C-6.55167969 3.79792969 -5.81820312 3.43570313 -5.0625 3.0625 C-3.96615234 2.52302734 -3.96615234 2.52302734 -2.84765625 1.97265625 C-1.03750973 1.13628173 -1.03750973 1.13628173 0 0 Z " fill="#46A8ED" transform="translate(62,40)"/>
<path d="M0 0 C0 0.99 0 1.98 0 3 C-3.3 3.33 -6.6 3.66 -10 4 C-10.33 2.68 -10.66 1.36 -11 0 C-3.375 -1.125 -3.375 -1.125 0 0 Z " fill="#30C1F9" transform="translate(32,41)"/>
<path d="M0 0 C-1.4859916 4.59306496 -3.85014682 7.43569245 -7 11 C-7.67578125 9.234375 -7.67578125 9.234375 -8 7 C-6.85546875 5.078125 -6.85546875 5.078125 -5.1875 3.25 C-4.64480469 2.63640625 -4.10210937 2.0228125 -3.54296875 1.390625 C-2 0 -2 0 0 0 Z " fill="#4B9DF7" transform="translate(88,44)"/>
<path d="M0 0 C0.33 0 0.66 0 1 0 C1 1.65 1 3.3 1 5 C-0.32 5.33 -1.64 5.66 -3 6 C-2 4 -1 2 0 0 Z M-4 6 C-3.67 6.99 -3.34 7.98 -3 9 C-4.9375 12.1875 -4.9375 12.1875 -7 15 C-7.33 14.34 -7.66 13.68 -8 13 C-7.22265625 11.2734375 -7.22265625 11.2734375 -6.0625 9.375 C-5.381875 8.26125 -4.70125 7.1475 -4 6 Z " fill="#4C8CF6" transform="translate(75,75)"/>
<path d="M0 0 C0.66 0.33 1.32 0.66 2 1 C1.67 2.32 1.34 3.64 1 5 C0.34 5 -0.32 5 -1 5 C-0.34 6.98 0.32 8.96 1 11 C-0.65 9.35 -2.3 7.7 -4 6 C-2.25 1.125 -2.25 1.125 0 0 Z " fill="#9318F8" transform="translate(149,217)"/>
<path d="M0 0 C3.5625 0.1875 3.5625 0.1875 5.5625 2.1875 C3.9125 2.1875 2.2625 2.1875 0.5625 2.1875 C0.5625 2.8475 0.5625 3.5075 0.5625 4.1875 C-1.0875 4.5175 -2.7375 4.8475 -4.4375 5.1875 C-4.4375 0.24204545 -4.4375 0.24204545 0 0 Z " fill="#7C48F0" transform="translate(137.4375,159.8125)"/>
<path d="M0 0 C0.66 0.33 1.32 0.66 2 1 C1.75 3.375 1.75 3.375 1 6 C-1.0625 7.3125 -1.0625 7.3125 -3 8 C-3 4 -3 4 -2 1 C-1.34 0.67 -0.68 0.34 0 0 Z " fill="#6D50F2" transform="translate(86,174)"/>
<path d="M0 0 C0.66 0.33 1.32 0.66 2 1 C1.525625 1.7425 1.05125 2.485 0.5625 3.25 C-0.77869327 5.61050015 -1.512312 7.36648477 -2 10 C-3.65 10 -5.3 10 -7 10 C-6.57847656 9.44570312 -6.15695313 8.89140625 -5.72265625 8.3203125 C-5.17480469 7.59585938 -4.62695312 6.87140625 -4.0625 6.125 C-3.51722656 5.40570313 -2.97195312 4.68640625 -2.41015625 3.9453125 C-0.96035376 2.05642921 -0.96035376 2.05642921 0 0 Z " fill="#5593F5" transform="translate(86,62)"/>
<path d="M0 0 C0.33 0.66 0.66 1.32 1 2 C3.97 2 6.94 2 10 2 C6.57653445 5.14958831 3.55737263 5.56179109 -1 6 C-1.33 5.34 -1.66 4.68 -2 4 C-1.34 4 -0.68 4 0 4 C0 2.68 0 1.36 0 0 Z " fill="#5787ED" transform="translate(126,46)"/>
<path d="M0 0 C2.625 0.9375 2.625 0.9375 5 2 C3.8125 3.5625 3.8125 3.5625 2 5 C-0.6875 4.6875 -0.6875 4.6875 -3 4 C-2.67 3.01 -2.34 2.02 -2 1 C-1.34 0.67 -0.68 0.34 0 0 Z " fill="#7D4DF6" transform="translate(115,175)"/>
<path d="M0 0 C2.4375 0.75 2.4375 0.75 5 2 C5.8125 4.125 5.8125 4.125 6 6 C4.02 6 2.04 6 0 6 C0 4.02 0 2.04 0 0 Z " fill="#38BAEF" transform="translate(32,42)"/>
<path d="M0 0 C0.75410156 0.00644531 1.50820312 0.01289063 2.28515625 0.01953125 C3.45111328 0.04466797 3.45111328 0.04466797 4.640625 0.0703125 C5.82978516 0.08384766 5.82978516 0.08384766 7.04296875 0.09765625 C8.99231781 0.12114238 10.94151075 0.15701113 12.890625 0.1953125 C12.890625 0.5253125 12.890625 0.8553125 12.890625 1.1953125 C2.495625 1.6903125 2.495625 1.6903125 -8.109375 2.1953125 C-3.609375 -0.0546875 -3.609375 -0.0546875 0 0 Z " fill="#A809ED" transform="translate(214.109375,201.8046875)"/>
<path d="M0 0 C1.98 0 3.96 0 6 0 C5.67 1.98 5.34 3.96 5 6 C3.0625 5.25 3.0625 5.25 1 4 C0.25 1.875 0.25 1.875 0 0 Z " fill="#4B94F3" transform="translate(30,104)"/>
<path d="M0 0 C2.31 0 4.62 0 7 0 C5.72485508 2.55028983 4.59658703 2.93081711 2 4 C1.01 4 0.02 4 -1 4 C-0.67 2.68 -0.34 1.36 0 0 Z " fill="#A80BFB" transform="translate(204,200)"/>
<path d="M0 0 C0.66 0.33 1.32 0.66 2 1 C0.52307692 5.67692308 0.52307692 5.67692308 -2.125 7.3125 C-3.053125 7.6528125 -3.053125 7.6528125 -4 8 C-4 6.68 -4 5.36 -4 4 C-3.01 3.67 -2.02 3.34 -1 3 C-0.67 2.01 -0.34 1.02 0 0 Z " fill="#9E23FD" transform="translate(172,178)"/>
<path d="M0 0 C0.33 0 0.66 0 1 0 C1 6.6 1 13.2 1 20 C0.67 20 0.34 20 0 20 C0 13.4 0 6.8 0 0 Z " fill="#4E73F2" transform="translate(11,155)"/>
<path d="M0 0 C0.33 0 0.66 0 1 0 C1 6.6 1 13.2 1 20 C0.67 20 0.34 20 0 20 C0 13.4 0 6.8 0 0 Z " fill="#45B1F4" transform="translate(11,53)"/>
<path d="M0 0 C0.33 0 0.66 0 1 0 C1 6.27 1 12.54 1 19 C0.67 19 0.34 19 0 19 C0 12.73 0 6.46 0 0 Z " fill="#A708F6" transform="translate(244,161)"/>
<path d="M0 0 C2.0625 0.4375 2.0625 0.4375 4 1 C3.67 2.32 3.34 3.64 3 5 C0.525 4.01 0.525 4.01 -2 3 C-1 1 -1 1 0 0 Z " fill="#3F94EE" transform="translate(26,98)"/>
<path d="M0 0 C3.68754757 0.49831724 5.60490662 1.10067643 8 4 C7.34 4.66 6.68 5.32 6 6 C5.01 5.67 4.02 5.34 3 5 C2.67 4.01 2.34 3.02 2 2 C1.34 1.34 0.68 0.68 0 0 Z " fill="#4E5CE6" transform="translate(154,54)"/>
<path d="M0 0 C0.99 0.33 1.98 0.66 3 1 C1.69593116 3.01920337 0.36176581 5.01924973 -1 7 C-1.33 7 -1.66 7 -2 7 C-2 5.35 -2 3.7 -2 2 C-1.34 2 -0.68 2 0 2 C0 1.34 0 0.68 0 0 Z " fill="#8D2CF9" transform="translate(106,224)"/>
<path d="M0 0 C0.33 1.65 0.66 3.3 1 5 C-1.31 4.34 -3.62 3.68 -6 3 C-3.375 0 -3.375 0 0 0 Z " fill="#8833E9" transform="translate(176,160)"/>
<path d="M0 0 C0.99 0.66 1.98 1.32 3 2 C2.67 2.99 2.34 3.98 2 5 C-0.0625 5.6875 -0.0625 5.6875 -2 6 C-1.125 1.125 -1.125 1.125 0 0 Z " fill="#489BEE" transform="translate(70,60)"/>
<path d="M0 0 C5.28 0 10.56 0 16 0 C16 0.33 16 0.66 16 1 C10.72 1 5.44 1 0 1 C0 0.67 0 0.34 0 0 Z " fill="#7675F1" transform="translate(29,202)"/>
<path d="M0 0 C4.62 0 9.24 0 14 0 C14 0.33 14 0.66 14 1 C9.38 1 4.76 1 0 1 C0 0.67 0 0.34 0 0 Z " fill="#8248E8" transform="translate(148,171)"/>
<path d="M0 0 C4.62 0 9.24 0 14 0 C14 0.33 14 0.66 14 1 C9.38 1 4.76 1 0 1 C0 0.67 0 0.34 0 0 Z " fill="#7C5AF1" transform="translate(94,171)"/>
<path d="M0 0 C0.33 0 0.66 0 1 0 C1 4.29 1 8.58 1 13 C0.67 13 0.34 13 0 13 C0 8.71 0 4.42 0 0 Z " fill="#56C2EA" transform="translate(70,14)"/>
<path d="M0 0 C3.96 0 7.92 0 12 0 C12 0.33 12 0.66 12 1 C8.04 1 4.08 1 0 1 C0 0.67 0 0.34 0 0 Z " fill="#8A5EE0" transform="translate(149,159)"/>
<path d="M0 0 C3.96 0 7.92 0 12 0 C12 0.33 12 0.66 12 1 C8.04 1 4.08 1 0 1 C0 0.67 0 0.34 0 0 Z " fill="#8660DA" transform="translate(95,159)"/>
<path d="M0 0 C3.96 0 7.92 0 12 0 C12 0.33 12 0.66 12 1 C8.04 1 4.08 1 0 1 C0 0.67 0 0.34 0 0 Z " fill="#2B94DA" transform="translate(41,71)"/>
<path d="M0 0 C3.63 0 7.26 0 11 0 C11 0.33 11 0.66 11 1 C7.37 1 3.74 1 0 1 C0 0.67 0 0.34 0 0 Z " fill="#68B8E0" transform="translate(41,46)"/>
<path d="M0 0 C3.3 0 6.6 0 10 0 C10 0.33 10 0.66 10 1 C6.7 1 3.4 1 0 1 C0 0.67 0 0.34 0 0 Z " fill="#8D3FDE" transform="translate(123,207)"/>
<path d="M0 0 C2.31 0 4.62 0 7 0 C7 0.33 7 0.66 7 1 C4.69 1 2.38 1 0 1 C0 0.67 0 0.34 0 0 Z " fill="#AF0BF0" transform="translate(188,250)"/>
<path d="M0 0 C2.31 0 4.62 0 7 0 C7 0.33 7 0.66 7 1 C4.69 1 2.38 1 0 1 C0 0.67 0 0.34 0 0 Z " fill="#460DE8" transform="translate(61,250)"/>
<path d="M0 0 C2.31 0 4.62 0 7 0 C7 0.33 7 0.66 7 1 C4.69 1 2.38 1 0 1 C0 0.67 0 0.34 0 0 Z " fill="#A90CF1" transform="translate(215,213)"/>
<path d="M0 0 C2.31 0 4.62 0 7 0 C7 0.33 7 0.66 7 1 C4.69 1 2.38 1 0 1 C0 0.67 0 0.34 0 0 Z " fill="#A80EF2" transform="translate(161,213)"/>
<path d="M0 0 C2.31 0 4.62 0 7 0 C7 0.33 7 0.66 7 1 C4.69 1 2.38 1 0 1 C0 0.67 0 0.34 0 0 Z " fill="#460FE3" transform="translate(88,213)"/>
<path d="M0 0 C2.31 0 4.62 0 7 0 C7 0.33 7 0.66 7 1 C4.69 1 2.38 1 0 1 C0 0.67 0 0.34 0 0 Z " fill="#0903E6" transform="translate(34,213)"/>
<path d="M0 0 C2.31 0 4.62 0 7 0 C7 0.33 7 0.66 7 1 C4.69 1 2.38 1 0 1 C0 0.67 0 0.34 0 0 Z " fill="#40C1F7" transform="translate(21,39)"/>
<path d="M0 0 C1.98 0 3.96 0 6 0 C6 0.33 6 0.66 6 1 C4.02 1 2.04 1 0 1 C0 0.67 0 0.34 0 0 Z " fill="#6D22F2" transform="translate(161,160)"/>
<path d="M0 0 C1.65 0 3.3 0 5 0 C5 0.33 5 0.66 5 1 C3.35 1 1.7 1 0 1 C0 0.67 0 0.34 0 0 Z " fill="#801EE2" transform="translate(195,249)"/>
<path d="M0 0 C1.65 0 3.3 0 5 0 C5 0.33 5 0.66 5 1 C3.35 1 1.7 1 0 1 C0 0.67 0 0.34 0 0 Z " fill="#6B29DF" transform="translate(56,249)"/>
<path d="M0 0 C1.65 0 3.3 0 5 0 C5 0.33 5 0.66 5 1 C3.35 1 1.7 1 0 1 C0 0.67 0 0.34 0 0 Z " fill="#7419DB" transform="translate(156,214)"/>
<path d="M0 0 C1.65 0 3.3 0 5 0 C5 0.33 5 0.66 5 1 C3.35 1 1.7 1 0 1 C0 0.67 0 0.34 0 0 Z " fill="#662ED5" transform="translate(95,214)"/>
<path d="M0 0 C1.65 0 3.3 0 5 0 C5 0.33 5 0.66 5 1 C3.35 1 1.7 1 0 1 C0 0.67 0 0.34 0 0 Z " fill="#4D34C3" transform="translate(107,160)"/>
<path d="M0 0 C1.65 0 3.3 0 5 0 C5 0.33 5 0.66 5 1 C3.35 1 1.7 1 0 1 C0 0.67 0 0.34 0 0 Z " fill="#575FEA" transform="translate(89,160)"/>
<path d="M0 0 C0.33 0 0.66 0 1 0 C1 1.65 1 3.3 1 5 C0.67 5 0.34 5 0 5 C0 3.35 0 1.7 0 0 Z " fill="#6D18D6" transform="translate(243,156)"/>
<path d="M0 0 C0.33 0 0.66 0 1 0 C1 1.65 1 3.3 1 5 C0.67 5 0.34 5 0 5 C0 3.35 0 1.7 0 0 Z " fill="#4868E1" transform="translate(12,150)"/>
<path d="M0 0 C0.33 0 0.66 0 1 0 C1 1.65 1 3.3 1 5 C0.67 5 0.34 5 0 5 C0 3.35 0 1.7 0 0 Z " fill="#519AE9" transform="translate(12,73)"/>
<path d="M0 0 C1.65 0 3.3 0 5 0 C5 0.33 5 0.66 5 1 C3.35 1 1.7 1 0 1 C0 0.67 0 0.34 0 0 Z " fill="#518DE3" transform="translate(53,70)"/>
<path d="M0 0 C1.65 0 3.3 0 5 0 C5 0.33 5 0.66 5 1 C3.35 1 1.7 1 0 1 C0 0.67 0 0.34 0 0 Z " fill="#5A81FA" transform="translate(137,49)"/>
<path d="M0 0 C4 1 4 1 4 1 Z " fill="#9914D8" transform="translate(184,249)"/>
<path d="M0 0 C4 1 4 1 4 1 Z " fill="#8536D7" transform="translate(68,249)"/>
<path d="M0 0 C0.66 0.33 1.32 0.66 2 1 C1.01 1 0.02 1 -1 1 C-0.67 0.67 -0.34 0.34 0 0 Z " fill="#614AE7" transform="translate(70,221)"/>
<path d="M0 0 C4 1 4 1 4 1 Z " fill="#8911CC" transform="translate(223,214)"/>
<path d="M0 0 C4 1 4 1 4 1 Z " fill="#7012E5" transform="translate(211,214)"/>
<path d="M0 0 C4 1 4 1 4 1 Z " fill="#781BDD" transform="translate(168,214)"/>
<path d="M0 0 C4 1 4 1 4 1 Z " fill="#8440D3" transform="translate(84,214)"/>
<path d="M0 0 C4 1 4 1 4 1 Z " fill="#795BE6" transform="translate(41,214)"/>
<path d="M0 0 C4 1 4 1 4 1 Z " fill="#4D41C6" transform="translate(29,214)"/>
<path d="M0 0 C1 4 1 4 1 4 Z " fill="#9A19DB" transform="translate(243,181)"/>
<path d="M0 0 C1 4 1 4 1 4 Z " fill="#6180E5" transform="translate(12,176)"/>
<path d="M0 0 C4 1 4 1 4 1 Z " fill="#501ADA" transform="translate(144,160)"/>
<path d="M0 0 C1 4 1 4 1 4 Z " fill="#885BD7" transform="translate(195,102)"/>
<path d="M0 0 C1 4 1 4 1 4 Z " fill="#4B28D6" transform="translate(194,98)"/>
<path d="M0 0 C0.99 0.33 1.98 0.66 3 1 C2.01 1 1.02 1 0 1 C0 0.67 0 0.34 0 0 Z " fill="#4677CA" transform="translate(48,90)"/>
<path d="M0 0 C1 4 1 4 1 4 Z " fill="#40C5E8" transform="translate(12,49)"/>
<path d="M0 0 C4 1 4 1 4 1 Z " fill="#6874E2" transform="translate(142,50)"/>
<path d="M0 0 C1 4 1 4 1 4 Z " fill="#1DB8E7" transform="translate(69,27)"/>
<path d="M0 0 C3 1 3 1 3 1 Z " fill="#900EE6" transform="translate(227,215)"/>
<path d="M0 0 C3 1 3 1 3 1 Z " fill="#7A07F1" transform="translate(153,215)"/>
<path d="M0 0 C3 1 3 1 3 1 Z " fill="#3F21E0" transform="translate(26,215)"/>
<path d="M0 0 C3 1 3 1 3 1 Z " fill="#8A04EE" transform="translate(190,210)"/>
<path d="M0 0 C3 1 3 1 3 1 Z " fill="#715DFB" transform="translate(63,210)"/>
<path d="M0 0 C3 1 3 1 3 1 Z " fill="#A130FD" transform="translate(119,206)"/>
<path d="M0 0 C3 1 3 1 3 1 Z " fill="#841BDD" transform="translate(137,205)"/>
<path d="M0 0 C3 1 3 1 3 1 Z " fill="#AD40EF" transform="translate(116,205)"/>
<path d="" fill="#BF17E1" transform="translate(0,0)"/>
<path d="" fill="#B30AE2" transform="translate(0,0)"/>
<path d="" fill="#453FCB" transform="translate(0,0)"/>
<path d="" fill="#425DDB" transform="translate(0,0)"/>
<path d="M0 0 C3 1 3 1 3 1 Z " fill="#7F30D2" transform="translate(162,172)"/>
<path d="M0 0 C3 1 3 1 3 1 Z " fill="#6F37C1" transform="translate(145,172)"/>
<path d="M0 0 C3 1 3 1 3 1 Z " fill="#6339B9" transform="translate(108,172)"/>
<path d="M0 0 C3 1 3 1 3 1 Z " fill="#8D2ECE" transform="translate(91,172)"/>
<path d="" fill="#AE0DFF" transform="translate(0,0)"/>
<path d="" fill="#780ACE" transform="translate(0,0)"/>
<path d="" fill="#44BBFE" transform="translate(0,0)"/>
<path d="" fill="#75BFF7" transform="translate(0,0)"/>
<path d="" fill="#4248AD" transform="translate(0,0)"/>
<path d="M0 0 C3 1 3 1 3 1 Z " fill="#9837F1" transform="translate(203,115)"/>
<path d="M0 0 C3 1 3 1 3 1 Z " fill="#8D3CDF" transform="translate(200,114)"/>
<path d="" fill="#895ADD" transform="translate(0,0)"/>
<path d="" fill="#5A47DE" transform="translate(0,0)"/>
<path d="" fill="#3574D7" transform="translate(0,0)"/>
<path d="" fill="#367DD1" transform="translate(0,0)"/>
<path d="" fill="#43C1FE" transform="translate(0,0)"/>
<path d="" fill="#3668EC" transform="translate(0,0)"/>
<path d="" fill="#5AC8F3" transform="translate(0,0)"/>
<path d="M0 0 C3 1 3 1 3 1 Z " fill="#598CEC" transform="translate(58,69)"/>
<path d="M0 0 C3 1 3 1 3 1 Z " fill="#4DA2FB" transform="translate(61,68)"/>
<path d="M0 0 C3 1 3 1 3 1 Z " fill="#4498F9" transform="translate(146,51)"/>
<path d="" fill="#3464D2" transform="translate(0,0)"/>
<path d="" fill="#30A9CC" transform="translate(0,0)"/>
<path d="" fill="#405EBA" transform="translate(0,0)"/>
<path d="M0 0 C2 1 2 1 2 1 Z " fill="#960DEF" transform="translate(200,248)"/>
<path d="M0 0 C2 1 2 1 2 1 Z " fill="#A802F0" transform="translate(181,248)"/>
<path d="M0 0 C2 1 2 1 2 1 Z " fill="#7B56FF" transform="translate(73,248)"/>
<path d="M0 0 C2 1 2 1 2 1 Z " fill="#965FF2" transform="translate(54,248)"/>
<path d="M0 0 C2 1 2 1 2 1 Z " fill="#7336D3" transform="translate(51,247)"/>
<path d="" fill="#C619DC" transform="translate(0,0)"/>
<path d="" fill="#CE5CE0" transform="translate(0,0)"/>
<path d="" fill="#CA14E8" transform="translate(0,0)"/>
<path d="" fill="#402DC4" transform="translate(0,0)"/>
<path d="" fill="#D716EF" transform="translate(0,0)"/>
<path d="" fill="#AB41F3" transform="translate(0,0)"/>
<path d="" fill="#3628F1" transform="translate(0,0)"/>
<path d="" fill="#AA03EA" transform="translate(0,0)"/>
<path d="" fill="#AC1BE4" transform="translate(0,0)"/>
<path d="" fill="#9D46D6" transform="translate(0,0)"/>
<path d="" fill="#9713E8" transform="translate(0,0)"/>
<path d="" fill="#460ED6" transform="translate(0,0)"/>
<path d="" fill="#4A41E6" transform="translate(0,0)"/>
<path d="M0 0 C2 1 2 1 2 1 Z " fill="#A918E0" transform="translate(230,216)"/>
<path d="M0 0 C2 1 2 1 2 1 Z " fill="#A912DD" transform="translate(206,216)"/>
<path d="M0 0 C2 1 2 1 2 1 Z " fill="#701BE1" transform="translate(151,216)"/>
<path d="M0 0 C2 1 2 1 2 1 Z " fill="#7545E3" transform="translate(103,216)"/>
<path d="M0 0 C2 1 2 1 2 1 Z " fill="#6C70DA" transform="translate(48,216)"/>
<path d="M0 0 C2 1 2 1 2 1 Z " fill="#7869EB" transform="translate(24,216)"/>
<path d="M0 0 C2 1 2 1 2 1 Z " fill="#9155EC" transform="translate(100,215)"/>
<path d="M0 0 C2 1 2 1 2 1 Z " fill="#7650FA" transform="translate(81,215)"/>
<path d="M0 0 C2 1 2 1 2 1 Z " fill="#B229F7" transform="translate(185,207)"/>
<path d="M0 0 C2 1 2 1 2 1 Z " fill="#9469FB" transform="translate(69,207)"/>
<path d="M0 0 C2 1 2 1 2 1 Z " fill="#A305F7" transform="translate(183,206)"/>
<path d="M0 0 C2 1 2 1 2 1 Z " fill="#9B63FF" transform="translate(71,206)"/>
<path d="M0 0 C2 1 2 1 2 1 Z " fill="#5B0ECD" transform="translate(232,204)"/>
<path d="" fill="#6E10D2" transform="translate(0,0)"/>
<path d="" fill="#4E29D4" transform="translate(0,0)"/>
<path d="" fill="#422FC4" transform="translate(0,0)"/>
<path d="" fill="#9200FB" transform="translate(0,0)"/>
<path d="" fill="#382EC4" transform="translate(0,0)"/>
<path d="" fill="#600DD0" transform="translate(0,0)"/>
<path d="" fill="#4039DA" transform="translate(0,0)"/>
<path d="" fill="#6405C4" transform="translate(0,0)"/>
<path d="" fill="#A213E9" transform="translate(0,0)"/>
<path d="" fill="#B019F2" transform="translate(0,0)"/>
<path d="" fill="#3734D7" transform="translate(0,0)"/>
<path d="" fill="#C701FF" transform="translate(0,0)"/>
<path d="" fill="#7015C9" transform="translate(0,0)"/>
<path d="" fill="#966FF4" transform="translate(0,0)"/>
<path d="" fill="#97A4E8" transform="translate(0,0)"/>
<path d="" fill="#A321D8" transform="translate(0,0)"/>
<path d="" fill="#3932BD" transform="translate(0,0)"/>
<path d="" fill="#6A69FF" transform="translate(0,0)"/>
<path d="" fill="#CA1FF0" transform="translate(0,0)"/>
<path d="" fill="#704FE0" transform="translate(0,0)"/>
<path d="" fill="#D20EE6" transform="translate(0,0)"/>
<path d="" fill="#9E4DE2" transform="translate(0,0)"/>
<path d="" fill="#CC1DEB" transform="translate(0,0)"/>
<path d="" fill="#9057DC" transform="translate(0,0)"/>
<path d="" fill="#9622DD" transform="translate(0,0)"/>
<path d="" fill="#8C67E3" transform="translate(0,0)"/>
<path d="" fill="#8613D2" transform="translate(0,0)"/>
<path d="" fill="#7F65E2" transform="translate(0,0)"/>
<path d="M0 0 C2 1 2 1 2 1 Z " fill="#BB75FF" transform="translate(143,173)"/>
<path d="M0 0 C2 1 2 1 2 1 Z " fill="#B278FF" transform="translate(111,173)"/>
<path d="M0 0 C2 1 2 1 2 1 Z " fill="#D25DFF" transform="translate(177,165)"/>
<path d="M0 0 C2 1 2 1 2 1 Z " fill="#6D67ED" transform="translate(77,165)"/>
<path d="M0 0 C2 1 2 1 2 1 Z " fill="#9B67F9" transform="translate(138,162)"/>
<path d="M0 0 C2 1 2 1 2 1 Z " fill="#7F5CF4" transform="translate(116,162)"/>
<path d="" fill="#8806DC" transform="translate(0,0)"/>
<path d="" fill="#800FCB" transform="translate(0,0)"/>
<path d="" fill="#9A17E5" transform="translate(0,0)"/>
<path d="" fill="#971ADE" transform="translate(0,0)"/>
<path d="" fill="#6F08D4" transform="translate(0,0)"/>
<path d="" fill="#61A3EA" transform="translate(0,0)"/>
<path d="" fill="#31CEFF" transform="translate(0,0)"/>
<path d="" fill="#55C0FF" transform="translate(0,0)"/>
<path d="" fill="#AFBCED" transform="translate(0,0)"/>
<path d="" fill="#3A5BBE" transform="translate(0,0)"/>
<path d="" fill="#6AB6F6" transform="translate(0,0)"/>
<path d="M0 0 C2 1 2 1 2 1 Z " fill="#9131F0" transform="translate(209,117)"/>
<path d="M0 0 C2 1 2 1 2 1 Z " fill="#906DE5" transform="translate(206,116)"/>
<path d="" fill="#24C7F6" transform="translate(0,0)"/>
<path d="" fill="#50BAF3" transform="translate(0,0)"/>
<path d="" fill="#8745D5" transform="translate(0,0)"/>
<path d="" fill="#6C9CF0" transform="translate(0,0)"/>
<path d="" fill="#3E87CC" transform="translate(0,0)"/>
<path d="" fill="#7C69FD" transform="translate(0,0)"/>
<path d="" fill="#6197F7" transform="translate(0,0)"/>
<path d="" fill="#66EBFD" transform="translate(0,0)"/>
<path d="" fill="#8479F4" transform="translate(0,0)"/>
<path d="" fill="#7585DC" transform="translate(0,0)"/>
<path d="" fill="#6AC4E4" transform="translate(0,0)"/>
<path d="" fill="#784AED" transform="translate(0,0)"/>
<path d="" fill="#5CB8F6" transform="translate(0,0)"/>
<path d="" fill="#3189EC" transform="translate(0,0)"/>
<path d="" fill="#34CDFE" transform="translate(0,0)"/>
<path d="" fill="#6135C8" transform="translate(0,0)"/>
<path d="" fill="#316AC5" transform="translate(0,0)"/>
<path d="" fill="#48B4DC" transform="translate(0,0)"/>
<path d="" fill="#4229D2" transform="translate(0,0)"/>
<path d="" fill="#1B45B1" transform="translate(0,0)"/>
<path d="" fill="#498DDF" transform="translate(0,0)"/>
<path d="" fill="#B341FB" transform="translate(0,0)"/>
<path d="" fill="#41C2FF" transform="translate(0,0)"/>
<path d="M0 0 C2 1 2 1 2 1 Z " fill="#79C7EC" transform="translate(64,67)"/>
<path d="M0 0 C2 1 2 1 2 1 Z " fill="#7FC4EE" transform="translate(66,66)"/>
<path d="M0 0 C2 1 2 1 2 1 Z " fill="#83B8E8" transform="translate(92,58)"/>
<path d="M0 0 C2 1 2 1 2 1 Z " fill="#627AEC" transform="translate(152,53)"/>
<path d="" fill="#4D83DC" transform="translate(0,0)"/>
<path d="" fill="#4DB8EE" transform="translate(0,0)"/>
<path d="" fill="#92C7F4" transform="translate(0,0)"/>
<path d="" fill="#30C7FD" transform="translate(0,0)"/>
<path d="" fill="#4CBDEB" transform="translate(0,0)"/>
<path d="" fill="#5BAFDE" transform="translate(0,0)"/>
<path d="" fill="#46BFF5" transform="translate(0,0)"/>
<path d="" fill="#6A8CFC" transform="translate(0,0)"/>
<path d="" fill="#5CC4EF" transform="translate(0,0)"/>
<path d="" fill="#6DA0FB" transform="translate(0,0)"/>
<path d="" fill="#34C2FF" transform="translate(0,0)"/>
<path d="" fill="#2966C6" transform="translate(0,0)"/>
<path d="" fill="#4EBBFA" transform="translate(0,0)"/>
<path d="" fill="#0574EF" transform="translate(0,0)"/>
<path d="" fill="#3253D2" transform="translate(0,0)"/>
<path d="" fill="#47B1E7" transform="translate(0,0)"/>
<path d="" fill="#34BAF8" transform="translate(0,0)"/>
<path d="" fill="#62EAF4" transform="translate(0,0)"/>
<path d="M0 0 C2 1 2 1 2 1 Z " fill="#53ACF5" transform="translate(88,7)"/>
<path d="M0 0 C2 1 2 1 2 1 Z " fill="#6C90EF" transform="translate(76,7)"/>
<path d="" fill="#A217DE" transform="translate(0,0)"/>
<path d="" fill="#9D59F2" transform="translate(0,0)"/>
<path d="" fill="#E715FF" transform="translate(0,0)"/>
<path d="" fill="#DC18FF" transform="translate(0,0)"/>
<path d="" fill="#C717FB" transform="translate(0,0)"/>
<path d="" fill="#A627F5" transform="translate(0,0)"/>
<path d="" fill="#9B10E3" transform="translate(0,0)"/>
<path d="" fill="#BB00EE" transform="translate(0,0)"/>
<path d="" fill="#B54DFD" transform="translate(0,0)"/>
<path d="" fill="#6B58EA" transform="translate(0,0)"/>
<path d="" fill="#D617E5" transform="translate(0,0)"/>
<path d="" fill="#8B7EFF" transform="translate(0,0)"/>
<path d="" fill="#850FCD" transform="translate(0,0)"/>
<path d="" fill="#925EF6" transform="translate(0,0)"/>
<path d="" fill="#A000F5" transform="translate(0,0)"/>
<path d="" fill="#8A18D0" transform="translate(0,0)"/>
<path d="" fill="#824CE2" transform="translate(0,0)"/>
<path d="" fill="#644EF3" transform="translate(0,0)"/>
<path d="" fill="#8D74FF" transform="translate(0,0)"/>
<path d="" fill="#AB14EB" transform="translate(0,0)"/>
<path d="" fill="#7323DC" transform="translate(0,0)"/>
<path d="" fill="#A00DDA" transform="translate(0,0)"/>
<path d="" fill="#B10AFD" transform="translate(0,0)"/>
<path d="" fill="#9265FB" transform="translate(0,0)"/>
<path d="" fill="#5559DB" transform="translate(0,0)"/>
<path d="" fill="#A00BF1" transform="translate(0,0)"/>
<path d="" fill="#A411D9" transform="translate(0,0)"/>
<path d="" fill="#AE54FF" transform="translate(0,0)"/>
<path d="" fill="#9B0AF8" transform="translate(0,0)"/>
<path d="" fill="#C12EFA" transform="translate(0,0)"/>
<path d="" fill="#661CC0" transform="translate(0,0)"/>
<path d="" fill="#5B56FF" transform="translate(0,0)"/>
<path d="" fill="#7D1FDA" transform="translate(0,0)"/>
<path d="" fill="#7D73FF" transform="translate(0,0)"/>
<path d="" fill="#8D02D7" transform="translate(0,0)"/>
<path d="" fill="#6614F5" transform="translate(0,0)"/>
<path d="" fill="#551CFF" transform="translate(0,0)"/>
<path d="" fill="#AE1CE3" transform="translate(0,0)"/>
<path d="" fill="#2400C7" transform="translate(0,0)"/>
<path d="" fill="#2000D0" transform="translate(0,0)"/>
<path d="" fill="#8E82F8" transform="translate(0,0)"/>
<path d="" fill="#DE0AFF" transform="translate(0,0)"/>
<path d="" fill="#8D14DE" transform="translate(0,0)"/>
<path d="" fill="#8C40FF" transform="translate(0,0)"/>
<path d="" fill="#1703D4" transform="translate(0,0)"/>
<path d="" fill="#8465EF" transform="translate(0,0)"/>
<path d="" fill="#1900C8" transform="translate(0,0)"/>
<path d="" fill="#CB14FF" transform="translate(0,0)"/>
<path d="" fill="#4400B5" transform="translate(0,0)"/>
<path d="" fill="#10009D" transform="translate(0,0)"/>
<path d="" fill="#8D13D0" transform="translate(0,0)"/>
<path d="" fill="#7E0ED3" transform="translate(0,0)"/>
<path d="" fill="#9E71F0" transform="translate(0,0)"/>
<path d="" fill="#6152F2" transform="translate(0,0)"/>
<path d="" fill="#8911E0" transform="translate(0,0)"/>
<path d="" fill="#8215D5" transform="translate(0,0)"/>
<path d="" fill="#956AE6" transform="translate(0,0)"/>
<path d="" fill="#5700B8" transform="translate(0,0)"/>
<path d="" fill="#240D99" transform="translate(0,0)"/>
<path d="" fill="#A400FF" transform="translate(0,0)"/>
<path d="" fill="#7F13E0" transform="translate(0,0)"/>
<path d="" fill="#7057F1" transform="translate(0,0)"/>
<path d="" fill="#9212FF" transform="translate(0,0)"/>
<path d="" fill="#9619F7" transform="translate(0,0)"/>
<path d="" fill="#594EE6" transform="translate(0,0)"/>
<path d="" fill="#5E5CF3" transform="translate(0,0)"/>
<path d="" fill="#8808E2" transform="translate(0,0)"/>
<path d="" fill="#9307FC" transform="translate(0,0)"/>
<path d="" fill="#9859FF" transform="translate(0,0)"/>
<path d="" fill="#585AF6" transform="translate(0,0)"/>
<path d="" fill="#B219DC" transform="translate(0,0)"/>
<path d="" fill="#8576FA" transform="translate(0,0)"/>
<path d="" fill="#AA1CD9" transform="translate(0,0)"/>
<path d="" fill="#715BE0" transform="translate(0,0)"/>
<path d="" fill="#9B1FE6" transform="translate(0,0)"/>
<path d="" fill="#775BDD" transform="translate(0,0)"/>
<path d="" fill="#A11CE6" transform="translate(0,0)"/>
<path d="" fill="#735BDE" transform="translate(0,0)"/>
<path d="" fill="#9F06FF" transform="translate(0,0)"/>
<path d="" fill="#7F7CFF" transform="translate(0,0)"/>
<path d="" fill="#A70CED" transform="translate(0,0)"/>
<path d="" fill="#996DFE" transform="translate(0,0)"/>
<path d="" fill="#8900DB" transform="translate(0,0)"/>
<path d="" fill="#7D58FF" transform="translate(0,0)"/>
<path d="" fill="#B90AFF" transform="translate(0,0)"/>
<path d="" fill="#7752FF" transform="translate(0,0)"/>
<path d="" fill="#9813DB" transform="translate(0,0)"/>
<path d="" fill="#745CD6" transform="translate(0,0)"/>
<path d="" fill="#7700C0" transform="translate(0,0)"/>
<path d="" fill="#8E7CF4" transform="translate(0,0)"/>
<path d="" fill="#7409CA" transform="translate(0,0)"/>
<path d="" fill="#7E70ED" transform="translate(0,0)"/>
<path d="" fill="#AD06FB" transform="translate(0,0)"/>
<path d="" fill="#6663FF" transform="translate(0,0)"/>
<path d="" fill="#8F0BE7" transform="translate(0,0)"/>
<path d="" fill="#B42DF7" transform="translate(0,0)"/>
<path d="" fill="#9E5DEE" transform="translate(0,0)"/>
<path d="" fill="#794CD4" transform="translate(0,0)"/>
<path d="" fill="#A09DFF" transform="translate(0,0)"/>
<path d="" fill="#7D05C4" transform="translate(0,0)"/>
<path d="" fill="#7D7CF0" transform="translate(0,0)"/>
<path d="" fill="#BF3AFF" transform="translate(0,0)"/>
<path d="" fill="#7571E9" transform="translate(0,0)"/>
<path d="" fill="#AF45E6" transform="translate(0,0)"/>
<path d="" fill="#7567CB" transform="translate(0,0)"/>
<path d="" fill="#871EDA" transform="translate(0,0)"/>
<path d="" fill="#8F1FE5" transform="translate(0,0)"/>
<path d="" fill="#9B0EF6" transform="translate(0,0)"/>
<path d="" fill="#8F0DDD" transform="translate(0,0)"/>
<path d="" fill="#59A8F1" transform="translate(0,0)"/>
<path d="" fill="#7296EE" transform="translate(0,0)"/>
<path d="" fill="#6E94ED" transform="translate(0,0)"/>
<path d="" fill="#7C2CE4" transform="translate(0,0)"/>
<path d="" fill="#B047FF" transform="translate(0,0)"/>
<path d="" fill="#728FFF" transform="translate(0,0)"/>
<path d="" fill="#6D95FF" transform="translate(0,0)"/>
<path d="" fill="#4E92FF" transform="translate(0,0)"/>
<path d="" fill="#579CFF" transform="translate(0,0)"/>
<path d="" fill="#3B79F2" transform="translate(0,0)"/>
<path d="" fill="#4E84F8" transform="translate(0,0)"/>
<path d="" fill="#5EA5FF" transform="translate(0,0)"/>
<path d="" fill="#568AED" transform="translate(0,0)"/>
<path d="" fill="#4D62E8" transform="translate(0,0)"/>
<path d="" fill="#5DA2FF" transform="translate(0,0)"/>
<path d="" fill="#6F7BE6" transform="translate(0,0)"/>
<path d="" fill="#727EF5" transform="translate(0,0)"/>
<path d="" fill="#5766D8" transform="translate(0,0)"/>
<path d="" fill="#B7E1FF" transform="translate(0,0)"/>
<path d="" fill="#5E9AD8" transform="translate(0,0)"/>
<path d="" fill="#60B0FF" transform="translate(0,0)"/>
<path d="" fill="#47B7FA" transform="translate(0,0)"/>
<path d="" fill="#48AEF2" transform="translate(0,0)"/>
<path d="" fill="#65A3F2" transform="translate(0,0)"/>
<path d="" fill="#5EA3F2" transform="translate(0,0)"/>
<path d="" fill="#5F9DED" transform="translate(0,0)"/>
<path d="" fill="#5E9FE9" transform="translate(0,0)"/>
<path d="" fill="#56ABE7" transform="translate(0,0)"/>
<path d="" fill="#40B1FA" transform="translate(0,0)"/>
<path d="" fill="#5F4AF7" transform="translate(0,0)"/>
<path d="" fill="#549AFF" transform="translate(0,0)"/>
<path d="" fill="#6349F3" transform="translate(0,0)"/>
<path d="" fill="#679CFE" transform="translate(0,0)"/>
<path d="" fill="#8A6CEE" transform="translate(0,0)"/>
<path d="" fill="#6893F4" transform="translate(0,0)"/>
<path d="" fill="#AE67FF" transform="translate(0,0)"/>
<path d="" fill="#3CA6F6" transform="translate(0,0)"/>
<path d="" fill="#9B63FF" transform="translate(0,0)"/>
<path d="" fill="#5FAAFF" transform="translate(0,0)"/>
<path d="" fill="#744BEF" transform="translate(0,0)"/>
<path d="" fill="#559AFB" transform="translate(0,0)"/>
<path d="" fill="#4C3ED7" transform="translate(0,0)"/>
<path d="" fill="#4EA1FC" transform="translate(0,0)"/>
<path d="" fill="#7E6CFF" transform="translate(0,0)"/>
<path d="" fill="#57A3F2" transform="translate(0,0)"/>
<path d="" fill="#8F64FF" transform="translate(0,0)"/>
<path d="" fill="#4CA6FF" transform="translate(0,0)"/>
<path d="" fill="#B1A0FF" transform="translate(0,0)"/>
<path d="" fill="#469DFF" transform="translate(0,0)"/>
<path d="" fill="#A9A8FF" transform="translate(0,0)"/>
<path d="" fill="#59A7FF" transform="translate(0,0)"/>
<path d="" fill="#8283F2" transform="translate(0,0)"/>
<path d="" fill="#3784D8" transform="translate(0,0)"/>
<path d="" fill="#A9A8FF" transform="translate(0,0)"/>
<path d="" fill="#55AAFF" transform="translate(0,0)"/>
<path d="" fill="#6D6AD4" transform="translate(0,0)"/>
<path d="" fill="#68A2FA" transform="translate(0,0)"/>
<path d="" fill="#5A58D1" transform="translate(0,0)"/>
<path d="" fill="#70A0E8" transform="translate(0,0)"/>
<path d="" fill="#45A3FE" transform="translate(0,0)"/>
<path d="" fill="#3C8BE5" transform="translate(0,0)"/>
<path d="" fill="#5AB0FF" transform="translate(0,0)"/>
<path d="" fill="#58A2FB" transform="translate(0,0)"/>
<path d="" fill="#56A5FA" transform="translate(0,0)"/>
<path d="" fill="#4F9BFC" transform="translate(0,0)"/>
<path d="" fill="#469FFC" transform="translate(0,0)"/>
<path d="" fill="#499EEF" transform="translate(0,0)"/>
<path d="" fill="#509AF5" transform="translate(0,0)"/>
<path d="" fill="#6D97F4" transform="translate(0,0)"/>
<path d="" fill="#55B5FF" transform="translate(0,0)"/>
<path d="" fill="#4BDBFF" transform="translate(0,0)"/>
<path d="" fill="#1CADDC" transform="translate(0,0)"/>
<path d="" fill="#55AFEC" transform="translate(0,0)"/>
<path d="" fill="#4880F8" transform="translate(0,0)"/>
<path d="" fill="#4BB3E4" transform="translate(0,0)"/>
<path d="" fill="#5499FA" transform="translate(0,0)"/>
<path d="" fill="#58A5FF" transform="translate(0,0)"/>
<path d="" fill="#3290DF" transform="translate(0,0)"/>
<path d="" fill="#5A5BEE" transform="translate(0,0)"/>
<path d="" fill="#779FFA" transform="translate(0,0)"/>
<path d="" fill="#3DA5EF" transform="translate(0,0)"/>
<path d="" fill="#5BA7FF" transform="translate(0,0)"/>
<path d="" fill="#55A9FF" transform="translate(0,0)"/>
<path d="" fill="#53ABFF" transform="translate(0,0)"/>
<path d="" fill="#53A6F5" transform="translate(0,0)"/>
<path d="" fill="#51B1FE" transform="translate(0,0)"/>
<path d="" fill="#4EA8F9" transform="translate(0,0)"/>
<path d="" fill="#3E99FC" transform="translate(0,0)"/>
<path d="" fill="#388CDF" transform="translate(0,0)"/>
<path d="" fill="#57AEFE" transform="translate(0,0)"/>
<path d="" fill="#44B3ED" transform="translate(0,0)"/>
<path d="" fill="#309FDB" transform="translate(0,0)"/>
<path d="" fill="#3FB9E8" transform="translate(0,0)"/>
<path d="" fill="#66CFFF" transform="translate(0,0)"/>
</svg>
